<svg width="721" height="482" viewBox="0 0 721 482" fill="none" xmlns="http://www.w3.org/2000/svg">
<ellipse cx="377.67" cy="254.204" rx="227.955" ry="227.243" fill="url(#paint0_linear_111:4)"/>
<path d="M129.036 122.658C129.036 122.658 70.9908 149.765 135.849 204.329C135.849 204.329 163.249 204.086 138.319 155.154C134.468 147.595 127.023 137.678 129.036 122.658Z" fill="#0DA5CE"/>
<path d="M135.849 204.329C135.849 204.329 133.639 187.415 124.638 172.883C115.637 158.35 115.852 141.58 129.035 122.659" stroke="#2E547B" stroke-miterlimit="10"/>
<path d="M147.518 195.862C147.518 195.862 143.494 188.678 131.138 186.382" stroke="#2E547B" stroke-miterlimit="10"/>
<path d="M124.188 193.489C124.188 193.489 124.314 184.453 129.776 182.949" stroke="#2E547B" stroke-miterlimit="10"/>
<path d="M122.91 169.838C122.91 169.838 138.729 164.076 146.89 176.137" stroke="#2E547B" stroke-miterlimit="10"/>
<path d="M114.011 181.13C114.011 181.13 113.126 167.623 121.199 166.124" stroke="#2E547B" stroke-miterlimit="10"/>
<path d="M118.564 155.15C118.564 155.15 131.994 145.942 138.319 155.153" stroke="#2E547B" stroke-miterlimit="10"/>
<path d="M105.211 158.202C105.211 158.202 111.21 150.61 118.44 151.216" stroke="#2E547B" stroke-miterlimit="10"/>
<path d="M120.639 138.902C120.639 138.902 126.149 134.371 131.115 140.716" stroke="#2E547B" stroke-miterlimit="10"/>
<path d="M108.729 141.807C108.729 141.807 116.044 133.297 121.869 135.594" stroke="#2E547B" stroke-miterlimit="10"/>
<path d="M98.8007 159.937C91.6163 157.32 85.105 152.944 81.6767 146.406C78.4577 149.284 76.4163 153.169 74.6273 157.043C72.7459 161.116 71.0831 165.364 69.7318 169.703C71.199 171.483 72.4465 172.931 72.8628 173.44C77.0671 178.576 83.8067 186.239 89.8863 189.281C86.2706 189.718 83.2914 186.772 80.0167 185.225C77.6966 184.128 75.107 183.72 72.5765 183.228C70.6597 182.856 68.7559 182.422 66.8647 181.941C66.1374 186.691 65.8822 191.461 66.2117 196.153C70.9378 198.031 75.9338 199.271 81.0134 199.794C83.4308 200.042 86.7022 199.884 88.553 201.297C85.981 204.851 79.1014 204.37 75.1267 204.23C72.5312 204.138 69.9356 204.047 67.3406 203.956C68.128 207.452 69.2979 210.87 70.9099 214.166C71.4001 215.169 71.9481 216.145 72.5262 217.104C76.1185 216.955 79.7014 216.613 83.251 216.046C86.382 215.545 95.1189 211.966 97.3308 213.959C95.9019 215.018 94.2512 215.813 92.6561 216.672C91.5354 217.276 90.4136 217.88 89.259 218.42C87.4356 219.273 85.5367 219.963 83.6406 220.652C81.503 221.428 79.3653 222.205 77.2283 222.982C82.5876 227.954 90.1174 230.317 97.5385 230.89C109.809 231.838 122.364 228.198 132.216 221.077C137.708 217.108 140.056 216.403 146.645 214.797C152.329 213.413 158.093 211.175 161.724 206.488C163.378 204.353 164.472 201.842 165.126 199.248C167.061 191.57 164.998 183.047 159.742 177.004C158.652 175.751 157.447 174.625 156.158 173.601C149.423 180.602 138.726 192.01 135.669 192.947C137.284 186.638 140.707 180.407 144.255 174.922C145.535 172.944 146.915 170.947 147.964 168.849C143.546 167 138.724 165.856 133.97 165.164C133.72 165.128 133.469 165.103 133.219 165.068C131.025 171.91 128.838 178.753 126.623 185.588C126.011 187.477 125.086 192.868 121.722 190.923C120.131 190.003 121.106 181.945 121.073 180.151C120.975 174.724 120.879 169.284 121.093 163.863C115.697 163.419 110.312 162.931 105.041 161.758C104.726 161.687 104.41 161.606 104.095 161.53C103.088 165.541 102.274 169.891 102.057 170.58C100.7 167.183 99.6777 163.576 98.8007 159.937ZM135.199 208.285C137.03 206.321 139.743 205.299 142.452 204.966C145.161 204.634 147.906 204.926 150.621 205.219C151.218 205.284 151.875 205.378 152.262 205.824C152.834 206.483 152.435 207.57 151.692 208.042C150.949 208.515 150.007 208.546 149.119 208.561L148.087 208.083C144.204 209.387 140.217 210.401 136.174 211.115C135.802 211.181 135.406 211.242 135.057 211.101C134.004 210.676 134.434 209.105 135.199 208.285ZM89.3568 174.061C89.6535 175.564 89.194 177.316 87.853 178.123L86.6159 177.494C82.727 174.598 79.4774 170.901 77.1458 166.719C78.6932 165.569 80.9106 166.416 82.6226 167.32C85.5564 168.869 88.7279 170.882 89.3568 174.061ZM100.569 208.712L99.0226 209.09C94.8642 210.144 90.5458 210.606 86.2498 210.454C85.5963 209.759 86.2952 208.646 87.0913 208.108C89.7978 206.278 93.4118 206.587 96.6877 206.971C98.1614 207.144 99.8531 207.453 100.569 208.712ZM110.982 221.661C118.258 219.949 115.696 224.234 110.33 225.532C104.222 227.009 97.7204 227.208 91.5119 226.242C98.0018 224.715 104.492 223.188 110.982 221.661Z" fill="#24578C"/>
<path d="M654.16 144.353C654.16 144.353 706.289 188.085 623.554 226.859C623.554 226.859 595.323 219.18 635.194 175.398C641.353 168.636 651.905 160.411 654.16 144.353Z" fill="#24578C"/>
<path d="M623.554 226.859C623.554 226.859 630.717 209.989 644.208 197.419C657.699 184.848 662.317 167.47 654.161 144.353" stroke="#2D679B" stroke-miterlimit="10"/>
<path d="M613.945 214.951C613.945 214.951 620.174 208.621 633.598 209.599" stroke="#2D679B" stroke-miterlimit="10"/>
<path d="M638.726 218.824C638.726 218.824 641.204 209.457 635.996 206.423" stroke="#2D679B" stroke-miterlimit="10"/>
<path d="M646.871 194.742C646.871 194.742 632.196 184.503 620.286 194.748" stroke="#2D679B" stroke-miterlimit="10"/>
<path d="M652.804 208.818C652.804 208.818 657.616 195.106 649.711 191.371" stroke="#2D679B" stroke-miterlimit="10"/>
<path d="M655.598 180.751C655.598 180.751 644.385 167.6 635.194 175.399" stroke="#2D679B" stroke-miterlimit="10"/>
<path d="M668.509 187.522C668.509 187.522 664.506 178.054 656.862 176.721" stroke="#2D679B" stroke-miterlimit="10"/>
<path d="M658.145 163.406C658.145 163.406 653.761 157.232 646.801 162.44" stroke="#2D679B" stroke-miterlimit="10"/>
<path d="M669.608 169.635C669.608 169.635 664.509 158.863 657.829 159.655" stroke="#2D679B" stroke-miterlimit="10"/>
<path d="M687.979 196.53C687.988 195.77 688.598 191.145 688.902 186.8C688.56 186.779 688.216 186.764 687.877 186.737C682.19 186.29 676.615 185.119 671.043 183.9C669.477 189.418 667.593 194.859 665.711 200.286C665.089 202.081 663.423 210.484 661.52 210.918C657.498 211.836 658.339 206.13 658.344 204.041C658.361 196.484 658.411 188.928 658.453 181.371C658.19 181.328 657.929 181.276 657.666 181.235C652.658 180.464 647.433 180.127 642.383 180.623C642.748 183.056 643.48 185.49 644.117 187.874C645.882 194.485 647.279 201.807 646.831 208.649C644.064 206.764 637.054 191.991 632.582 182.872C630.95 183.505 629.368 184.265 627.86 185.188C620.589 189.644 615.715 197.578 615.139 205.895C614.944 208.705 615.219 211.568 616.18 214.226C618.291 220.06 623.352 224.089 628.613 227.235C634.713 230.883 636.842 232.317 641.06 238.003C648.628 248.204 660.057 255.739 672.708 258.573C680.359 260.286 688.707 260.235 695.73 256.888C693.836 255.447 691.941 254.006 690.048 252.566C688.368 251.288 686.685 250.008 685.131 248.587C684.147 247.688 683.218 246.734 682.289 245.782C680.968 244.425 679.569 243.116 678.48 241.611C681.359 240.289 688.968 246.585 691.952 248.055C695.335 249.721 698.826 251.169 702.39 252.428C703.286 251.641 704.158 250.829 704.98 249.972C707.684 247.155 709.984 244.078 711.924 240.805C709.284 240.096 706.644 239.388 704.004 238.679C699.961 237.593 692.885 235.953 691.467 231.585C693.792 230.736 697.03 231.905 699.542 232.401C704.822 233.444 710.253 233.738 715.623 233.308C717.496 228.691 718.807 223.816 719.636 218.815C717.576 218.715 715.519 218.563 713.47 218.346C710.763 218.059 708.025 217.671 705.331 218.057C701.53 218.603 697.566 220.646 694.073 219.091C701.186 217.908 710.481 212.282 716.397 208.415C716.983 208.031 718.713 206.96 720.773 205.623C720.84 200.842 720.563 196.058 720.01 191.381C719.484 186.934 718.707 182.396 716.416 178.508C710.821 184.025 702.835 186.416 694.751 186.83C692.673 190.221 690.461 193.532 687.979 196.53ZM641.482 227.094C641.084 227.128 640.706 226.944 640.354 226.763C636.522 224.799 632.847 222.548 629.37 220.039L628.175 220.201C627.287 219.911 626.35 219.589 625.758 218.885C625.166 218.18 625.122 216.965 625.914 216.479C626.449 216.15 627.141 216.258 627.763 216.377C630.589 216.92 633.445 217.473 636.06 218.643C638.676 219.813 641.067 221.679 642.264 224.219C642.763 225.279 642.68 226.991 641.482 227.094ZM708.593 199.248C710.612 198.868 713.12 198.7 714.299 200.334C710.58 203.82 706.097 206.536 701.236 208.247L699.785 208.498C698.702 207.273 698.815 205.369 699.607 203.95C701.284 200.946 705.135 199.901 708.593 199.248ZM681.423 234.782C684.844 235.406 688.579 236.211 690.7 238.886C691.324 239.673 691.661 241.008 690.775 241.506C686.406 240.333 682.215 238.536 678.379 236.191L676.948 235.335C678.082 234.289 679.885 234.501 681.423 234.782ZM680.296 255.759C673.736 254.814 667.262 252.607 661.605 249.237C656.636 246.276 655.467 241.175 662.222 245.143C668.247 248.681 674.272 252.22 680.296 255.759Z" fill="#0DA5CE"/>
<path d="M115.523 214.184C115.523 214.184 283.535 126.43 522.687 161.894C761.839 197.357 748.856 434.102 611.202 457.664C473.547 481.225 410.162 409.433 321.046 405.665C231.93 401.898 180.494 449.763 112.52 425.81C44.5464 401.858 -21.3021 304.439 115.523 214.184Z" fill="#FFFEF5"/>
<path d="M213.612 198.994C213.612 198.994 508.884 153.169 615.08 222.495C721.276 291.822 658.627 441.159 512.508 407.796C366.389 374.434 340.28 363.901 259.49 376.317C178.7 388.733 83.0436 368.778 85.432 336.264C87.8205 303.751 103.842 239.803 213.612 198.994Z" fill="#EDECE6"/>
<path d="M340.723 179.326C340.723 179.326 259.49 179.326 213.612 198.994C200.826 204.476 198.158 236.188 263.013 231.039C327.868 225.891 336.064 212.553 360.652 218.825C385.24 225.097 410.998 247.576 441.129 242.029C471.26 236.483 479.281 201.589 466.3 197.235C453.32 192.882 416.464 182.406 340.723 179.326Z" fill="#E2E1DE"/>
<path d="M295.331 287.51C295.331 287.51 235.286 309.783 212.73 300.405C190.174 291.028 -9.07307 341.708 110.221 368C229.515 394.293 247.104 363.995 283.798 363.257C320.491 362.518 385.735 308.616 295.331 287.51Z" fill="#E2E1DE"/>
<path d="M420.042 184.101C420.042 184.101 365.339 134.163 441.128 104.321C441.128 104.321 459.262 109.366 444.691 144.371C430.118 179.377 422.337 167.799 420.042 184.101Z" fill="#2A5081"/>
<path d="M441.128 104.321C441.128 104.321 408.44 131.06 418.326 182.406" stroke="#0BA4CD" stroke-miterlimit="10"/>
<path d="M449.075 112.936C449.075 112.936 435.677 125.534 428.334 120.043" stroke="#0BA4CD" stroke-miterlimit="10"/>
<path d="M420.611 136.912C420.611 136.912 445.388 142.429 449.332 130.001" stroke="#0BA4CD" stroke-miterlimit="10"/>
<path d="M416.496 161.253C416.496 161.253 434.664 165.614 439.235 156.034" stroke="#0BA4CD" stroke-miterlimit="10"/>
<path d="M401.292 141.45C401.292 141.45 404.189 152.6 416.689 157.306" stroke="#0BA4CD" stroke-miterlimit="10"/>
<path d="M411.615 122.19C411.615 122.19 411.675 135.422 419.384 139.799" stroke="#0BA4CD" stroke-miterlimit="10"/>
<path d="M423.723 112.813C423.723 112.813 420.743 120.436 426.718 122.842" stroke="#0BA4CD" stroke-miterlimit="10"/>
<path d="M459.901 126.007C459.901 126.007 438.35 135.801 423.781 165.722" stroke="#35527E" stroke-miterlimit="10"/>
<path d="M458.619 126.662C458.619 126.662 464.785 115.337 474.371 115.581C474.371 115.581 466.68 127.013 458.619 126.662Z" fill="#12B3D8"/>
<path d="M450.622 131.947C450.622 131.947 458.503 123.344 455.146 113.711C455.146 113.711 449.193 123.071 450.622 131.947Z" fill="#039ECA"/>
<path d="M464.513 135.063C464.513 135.063 456.428 127.883 449.003 133.227C449.003 133.227 458.088 139.073 464.513 135.063Z" fill="#12B3D8"/>
<path d="M445.224 121.456C445.224 121.456 448.607 128.885 442.193 139.415C442.193 139.415 437.318 131.499 445.224 121.456Z" fill="#12B3D8"/>
<path d="M456.798 140.681C456.798 140.681 445.418 134.966 439.369 142.406C439.368 142.406 451.684 146.243 456.798 140.681Z" fill="#039ECA"/>
<path d="M436.631 130.893C436.631 130.893 440.282 137.29 434.93 147.711C434.93 147.711 430.157 142.762 436.631 130.893Z" fill="#039ECA"/>
<path d="M448.41 146.98C448.41 146.98 436.907 142.826 431.83 151.438C431.83 151.438 441.187 154.62 448.41 146.98Z" fill="#12B3D8"/>
<path d="M662.35 351.396C662.35 351.396 611.821 297.484 689.777 273.447C689.777 273.447 707.45 279.845 690.113 313.645C672.775 347.445 665.947 335.317 662.35 351.396Z" fill="#2A5081"/>
<path d="M689.777 273.448C689.777 273.448 655.041 297.642 660.775 349.577" stroke="#0BA4CD" stroke-miterlimit="10"/>
<path d="M697.008 282.636C697.008 282.636 682.639 294.186 675.759 288.158" stroke="#0BA4CD" stroke-miterlimit="10"/>
<path d="M666.706 304.393C666.706 304.393 690.965 311.762 695.893 299.669" stroke="#0BA4CD" stroke-miterlimit="10"/>
<path d="M660.648 328.35C660.648 328.35 678.412 334.068 683.738 324.86" stroke="#0BA4CD" stroke-miterlimit="10"/>
<path d="M647.08 307.461C647.08 307.461 649.073 318.795 661.157 324.43" stroke="#0BA4CD" stroke-miterlimit="10"/>
<path d="M658.918 289.038C658.918 289.038 657.916 302.234 665.25 307.179" stroke="#0BA4CD" stroke-miterlimit="10"/>
<path d="M671.742 280.602C671.742 280.602 668.159 287.977 673.923 290.827" stroke="#0BA4CD" stroke-miterlimit="10"/>
<path d="M703.282 315.356C703.282 315.356 681.009 323.495 664.083 352.227" stroke="#35527E" stroke-miterlimit="10"/>
<path d="M701.951 315.913C701.951 315.913 709.007 305.087 718.544 306.052C718.544 306.052 709.96 316.869 701.951 315.913Z" fill="#12B3D8"/>
<path d="M693.554 320.578C693.554 320.578 702.102 312.595 699.529 302.738C699.529 302.739 692.841 311.62 693.554 320.578Z" fill="#039ECA"/>
<path d="M707.152 324.733C707.152 324.733 699.668 316.965 691.837 321.732C691.836 321.732 700.425 328.246 707.152 324.733Z" fill="#12B3D8"/>
<path d="M689.013 309.712C689.013 309.712 691.79 317.374 684.55 327.388C684.55 327.387 680.326 319.128 689.013 309.712Z" fill="#12B3D8"/>
<path d="M699.009 329.75C699.009 329.75 688.122 323.196 681.494 330.157C681.495 330.157 693.464 334.911 699.009 329.75Z" fill="#039ECA"/>
<path d="M679.69 318.472C679.69 318.472 682.817 325.125 676.644 335.112C676.644 335.112 672.283 329.817 679.69 318.472Z" fill="#039ECA"/>
<path d="M690.142 335.399C690.142 335.399 679.008 330.389 673.255 338.593C673.255 338.593 682.327 342.471 690.142 335.399Z" fill="#12B3D8"/>
<path d="M387.675 220.473C387.675 220.473 455.522 233.246 467.372 222.12C475.508 214.48 471.245 190.055 467.772 175.493C466.201 168.904 460.07 164.296 453.096 164.496C432.477 165.086 390.896 167.047 381.592 173.345C369.1 181.801 378.889 218.969 387.675 220.473Z" fill="#45D7FF"/>
<path d="M467.371 222.12C471.289 218.441 472.33 210.869 471.971 202.381C452.159 195.242 410.599 203.298 397.052 206.361C380.518 210.099 387.674 220.473 387.674 220.473C387.674 220.473 455.522 233.247 467.371 222.12Z" fill="#15AACC"/>
<path d="M425.324 201.349C425.324 201.349 417.949 183.419 420.673 166.13C423.398 148.841 456.056 154.567 460.509 158.195C464.963 161.824 472.182 175.081 471.971 202.381C471.971 202.381 457.662 195.119 425.324 201.349Z" fill="#0DCBFF"/>
<path d="M377.683 178.204C377.683 178.204 378.439 210.838 386.281 214.016C394.125 217.195 440.744 216.074 440.744 216.074" stroke="#4C2C1C" stroke-miterlimit="10" stroke-dasharray="5 5"/>
<path d="M443.75 199.667C443.75 199.667 437.341 220.088 443.225 226.664C449.109 233.24 464.765 230.997 469.602 223.235C474.439 215.472 471.971 202.381 471.971 202.381C471.971 202.381 464.24 195.961 443.75 199.667Z" fill="#15A4BC"/>
<path d="M442.41 225.536C442.41 225.536 442.516 215.891 444.006 208.544C444.701 205.118 447.623 202.518 451.21 202.196C454.011 201.944 457.963 202.16 463.422 203.519" stroke="#4C2C1C" stroke-miterlimit="10" stroke-dasharray="5 5"/>
<path d="M463.328 223.39C464.969 223.39 466.3 222.1 466.3 220.509C466.3 218.918 464.969 217.628 463.328 217.628C461.686 217.628 460.355 218.918 460.355 220.509C460.355 222.1 461.686 223.39 463.328 223.39Z" fill="white"/>
<path d="M373.373 205.303C373.373 205.303 379.809 208.306 380.661 207.517L380.133 211.245C380.133 211.245 374.235 211.897 373.373 205.303Z" fill="#15A4BC"/>
<path d="M373.848 195.922C373.848 195.922 372.61 191.413 376.47 188.397C376.47 188.397 377.69 191.111 376.774 192.437C375.857 193.763 373.848 195.922 373.848 195.922Z" fill="#15A4BC"/>
<path d="M442.312 156.758L445.439 182.482" stroke="#4C2C1C" stroke-miterlimit="10" stroke-dasharray="5 5"/>
<path d="M421.344 163.601C421.344 163.601 421.597 176.167 423.906 185.453C425.192 190.619 429.733 194.43 435.199 194.861C440.376 195.269 448.253 195.152 459.343 193.169" stroke="#4C2C1C" stroke-miterlimit="10" stroke-dasharray="5 5"/>
<path d="M373.705 192.194C373.705 192.194 366.791 204.445 374.012 208.619C379.033 211.521 373.793 202.737 374.884 198.843C375.975 194.95 373.705 192.194 373.705 192.194Z" fill="#45D7FF"/>
<path d="M404.951 190.091L403.613 179.86C403.425 178.421 402.069 177.403 400.585 177.585L394.148 178.376C392.663 178.559 391.612 179.873 391.8 181.311L393.138 191.542C393.327 192.981 394.683 194 396.167 193.817L402.604 193.026C404.089 192.844 405.14 191.53 404.951 190.091Z" fill="white"/>
<path d="M653.262 87.4316L649.718 85.7394L648.8 87.5465L652.343 89.2387L653.262 87.4316Z" fill="#2C5E84"/>
<path d="M653.756 88.3106L648.721 85.9062L648.767 85.8162C649.452 84.4689 651.134 83.9144 652.525 84.5785C653.915 85.2421 654.487 86.8732 653.802 88.2205L653.756 88.3106Z" fill="#2C5E84"/>
<path d="M614.04 188.06L591.104 177.107L589.266 180.722L612.202 191.675L614.04 188.06Z" fill="#2C5E84"/>
<path d="M611.316 183.39L596.585 176.355L595.207 179.066L609.938 186.101L611.316 183.39Z" fill="#336797"/>
<path d="M611.037 180.322L599.289 174.711L596.603 176.348L611.334 183.383L611.037 180.322Z" fill="#4187AA"/>
<path d="M612.886 166.691L609.717 165.177L606.447 171.609L609.616 173.123L612.886 166.691Z" fill="#2C5E84"/>
<path d="M608.311 171.832C606.508 170.972 604.328 171.69 603.44 173.437L602.107 176.057L608.633 179.174L609.966 176.554C610.854 174.807 610.113 172.693 608.311 171.832Z" fill="#336797"/>
<path d="M634.391 122.841L632.255 121.821L612.184 161.312L614.32 162.331L634.391 122.841Z" fill="#2C5E84"/>
<path d="M610.907 170.827L607.738 169.313C607.172 169.043 606.938 168.378 607.218 167.829C607.497 167.28 608.183 167.054 608.749 167.325L611.919 168.839C612.485 169.109 612.718 169.773 612.438 170.323C612.159 170.871 611.474 171.097 610.907 170.827Z" fill="#4187AA"/>
<path d="M612.018 167.089L609.828 166.044C608.831 165.568 608.533 164.336 609.213 163.505L612.251 159.789L615.659 161.417L614.47 166.015C614.203 167.045 613.014 167.565 612.018 167.089Z" fill="#4187AA"/>
<path d="M632.771 123.435C631.792 122.967 631.39 121.82 631.872 120.872L633.02 118.613L636.563 120.304L635.414 122.563C634.933 123.512 633.749 123.902 632.771 123.435Z" fill="#4187AA"/>
<path d="M637.476 119.852L632.814 117.626L632.447 118.349L637.109 120.575L637.476 119.852Z" fill="#2C5E84"/>
<path d="M640.457 118.57L632.066 114.563L632.325 111.318L642.955 116.394L640.457 118.57Z" fill="#2C5E84"/>
<path d="M637.118 119.67L633.202 117.8L633.745 115.364L638.78 117.769L637.118 119.67Z" fill="#2C5E84"/>
<path d="M637.993 95.1577C637.717 95.6995 632.326 111.318 632.326 111.318L642.955 116.394L652.91 102.282L645.257 97.2793L637.993 95.1577Z" fill="#E5F4F9"/>
<path d="M645.257 97.2791L636.987 113.544" stroke="#2C5E84" stroke-miterlimit="10"/>
<path d="M653.004 102.551L637.901 95.3382L637.785 91.4642L656.431 100.369L653.004 102.551Z" fill="#2C5E84"/>
<path d="M655.439 97.7621L640.335 90.5491L637.785 91.4642L656.431 100.369L655.439 97.7621Z" fill="#4187AA"/>
<path d="M651.989 88.1405L650.124 87.2497C646.519 85.5286 642.158 86.9648 640.381 90.4585L655.299 97.5826C657.075 94.0889 655.592 89.8617 651.989 88.1405Z" fill="#336797"/>
<path d="M650.124 87.2497C650.062 87.2201 649.999 87.1936 649.935 87.1655L646.722 93.4862L648.772 94.4659L651.989 88.1405L650.124 87.2497Z" fill="#4187AA"/>
<path d="M206.125 66.1992L202.323 67.2358L202.886 69.175L206.688 68.1384L206.125 66.1992Z" fill="#2C5E84"/>
<path d="M207.101 66.5745L201.698 68.0473L201.67 67.9504C201.25 66.5046 202.119 65.0027 203.611 64.596C205.103 64.1892 206.653 65.0318 207.073 66.4776L207.101 66.5745Z" fill="#2C5E84"/>
<path d="M246.351 166.467L221.739 173.177L222.865 177.056L247.477 170.346L246.351 166.467Z" fill="#2C5E84"/>
<path d="M241.105 164.758L225.297 169.069L226.141 171.977L241.949 167.667L241.105 164.758Z" fill="#336797"/>
<path d="M238.778 162.687L226.171 166.124L225.301 169.082L241.111 164.772L238.778 162.687Z" fill="#4187AA"/>
<path d="M230.769 151.368L227.366 152.295L229.369 159.198L232.771 158.271L230.769 151.368Z" fill="#2C5E84"/>
<path d="M230.896 158.139C228.962 158.666 227.835 160.613 228.379 162.487L229.195 165.299L236.2 163.39L235.383 160.578C234.839 158.704 232.83 157.612 230.896 158.139Z" fill="#336797"/>
<path d="M216.491 104.815L214.199 105.44L226.503 147.814L228.795 147.189L216.491 104.815Z" fill="#2C5E84"/>
<path d="M232.134 155.709L228.732 156.636C228.124 156.802 227.492 156.458 227.321 155.87C227.151 155.28 227.504 154.668 228.112 154.503L231.515 153.575C232.122 153.41 232.754 153.753 232.925 154.342C233.096 154.931 232.742 155.543 232.134 155.709Z" fill="#4187AA"/>
<path d="M230.382 152.21L228.032 152.85C226.962 153.142 225.892 152.419 225.823 151.36L225.52 146.628L229.178 145.631L231.464 149.822C231.977 150.76 231.452 151.918 230.382 152.21Z" fill="#4187AA"/>
<path d="M215.713 106.294C214.664 106.581 213.573 105.988 213.278 104.97L212.574 102.546L216.376 101.51L217.08 103.934C217.375 104.951 216.763 106.008 215.713 106.294Z" fill="#4187AA"/>
<path d="M216.745 100.56L211.742 101.924L211.967 102.7L216.97 101.336L216.745 100.56Z" fill="#2C5E84"/>
<path d="M218.077 97.6969L209.072 100.152L207.027 97.5698L218.433 94.4606L218.077 97.6969Z" fill="#2C5E84"/>
<path d="M216.352 100.679L212.149 101.825L210.873 99.6613L216.276 98.188L216.352 100.679Z" fill="#2C5E84"/>
<path d="M200.097 81.8784C200.266 82.4605 207.027 97.5697 207.027 97.5697L218.433 94.46L216.106 77.5135L206.964 78.7501L200.097 81.8784Z" fill="#E5F4F9"/>
<path d="M206.963 78.7509L212.029 96.2062" stroke="#2C5E84" stroke-miterlimit="10"/>
<path d="M216.363 77.6536L200.153 82.0725L197.396 79.2668L217.407 73.8114L216.363 77.6536Z" fill="#2C5E84"/>
<path d="M214.871 72.5144L198.662 76.9333L197.396 79.2667L217.407 73.8114L214.871 72.5144Z" fill="#4187AA"/>
<path d="M205.669 67.5927L203.668 68.1382C199.8 69.1926 197.546 73.0867 198.635 76.8356L214.643 72.4713C213.555 68.7228 209.538 66.5383 205.669 67.5927Z" fill="#336797"/>
<path d="M203.668 68.1389C203.601 68.1569 203.535 68.178 203.469 68.1982L205.438 74.9812L207.639 74.3812L205.669 67.5934L203.668 68.1389Z" fill="#4187AA"/>
<path d="M346.767 261.698L307.495 239.641L309.911 240.03L349.182 262.087L346.767 261.698Z" fill="#C6966E"/>
<path d="M346.767 261.698L349.182 262.086L334.979 304.852L334.879 305.153L334.768 305.486C334.572 306.081 334.092 306.54 333.582 306.682C333.417 306.728 333.25 306.741 333.087 306.715C332.911 306.686 332.76 306.615 332.636 306.511C332.289 306.22 332.161 305.674 332.353 305.095L332.829 303.661L346.767 261.698Z" fill="#A37657"/>
<path d="M332.829 303.662L293.558 281.605L307.495 239.641L346.767 261.698L332.829 303.662Z" fill="#B28562"/>
<path d="M331.884 301.274L295.543 280.862L308.44 242.029L344.782 262.441L331.884 301.274Z" fill="#E8C0A3"/>
<path d="M332.83 303.662L332.354 305.096C332.162 305.676 332.289 306.221 332.636 306.512L294.242 317.22L294.198 314.436L332.83 303.662Z" fill="#A37657"/>
<path d="M294.241 317.219L254.969 295.162L254.926 292.379L294.197 314.435L294.241 317.219Z" fill="#B28562"/>
<path d="M294.197 314.435L254.926 292.379L293.558 281.605L332.829 303.662L294.197 314.435Z" fill="#C6966E"/>
<path d="M295.602 311.206L262.324 292.515L295.06 283.386L328.338 302.077L295.602 311.206Z" fill="#B78662"/>
<path d="M129.286 345.053C129.286 345.053 122.928 340.305 115.236 328.22C108.442 317.544 79.5076 304.97 50.0234 306.858C50.0234 306.858 51.8185 353.081 110.278 346.293C115.006 345.745 123.178 342.547 129.286 345.053Z" fill="#35527E"/>
<path d="M51.7241 307.87C51.7241 307.87 88.5103 332.472 126.541 344.034" stroke="#6488BC" stroke-miterlimit="10"/>
<path d="M53.6108 317.258C53.6108 317.258 61.727 318.465 67.4978 317.494" stroke="#6488BC" stroke-miterlimit="10"/>
<path d="M56.4917 324.165C56.4917 324.165 71.8485 325.193 78.3554 323.695" stroke="#6488BC" stroke-miterlimit="10"/>
<path d="M63.1108 333.352C63.1108 333.352 80.0818 334.846 88.5881 328.714" stroke="#6488BC" stroke-miterlimit="10"/>
<path d="M74.2886 341.31C74.2886 341.31 93.5158 339.859 96.7162 332.561" stroke="#6488BC" stroke-miterlimit="10"/>
<path d="M87.9336 345.399C87.9336 345.399 99.7097 346.771 106.88 336.967" stroke="#6488BC" stroke-miterlimit="10"/>
<path d="M106.233 345.837C106.233 345.837 111.547 344.922 114.21 339.842" stroke="#6488BC" stroke-miterlimit="10"/>
<path d="M62.6646 307.834C62.6646 307.834 66.8677 313.202 66.6573 317.01" stroke="#6488BC" stroke-miterlimit="10"/>
<path d="M77.5332 309.79C77.5332 309.79 80.5282 318.038 77.7135 323.148" stroke="#6488BC" stroke-miterlimit="10"/>
<path d="M86.4619 312.068C86.4619 312.068 90.5514 321.777 87.7362 328.296" stroke="#6488BC" stroke-miterlimit="10"/>
<path d="M99.295 317.066C99.295 317.066 99.8573 327.67 96.0317 332.248" stroke="#6488BC" stroke-miterlimit="10"/>
<path d="M105.269 320.384C105.269 320.384 108.936 330.156 106.013 336.61" stroke="#6488BC" stroke-miterlimit="10"/>
<path d="M114.005 328.27C114.005 328.27 116.035 333.048 113.451 339.556" stroke="#6488BC" stroke-miterlimit="10"/>
<path d="M80.8218 275.118C80.8218 275.118 85.1298 312.651 125.306 350.301" stroke="#35527E" stroke-miterlimit="10"/>
<path d="M81.193 277.389C81.193 277.389 66.3307 262.16 71.7704 247.888C71.7704 247.888 86.0005 265.464 81.193 277.389Z" fill="#12B3D8"/>
<path d="M85.4318 292.186C85.4318 292.186 75.8255 275.814 58.6519 275.782C58.6519 275.782 70.4826 289.657 85.4318 292.186Z" fill="#039ECA"/>
<path d="M97.7335 272.962C97.7335 272.962 81.9915 281.324 86.6257 295.292C86.6257 295.292 100.761 284.725 97.7335 272.962Z" fill="#12B3D8"/>
<path d="M65.8096 294.769C65.8096 294.769 79.4741 293.6 92.9332 308.783C92.9332 308.783 77.7059 311.935 65.8096 294.769Z" fill="#12B3D8"/>
<path d="M102.652 287.509C102.652 287.509 87.5179 301.595 96.229 314.601C96.2285 314.601 108.854 298.123 102.652 287.509Z" fill="#039ECA"/>
<path d="M76.375 312.648C76.375 312.648 88.5281 310.533 102.375 324.064C102.375 324.064 91.9455 328.625 76.375 312.648Z" fill="#039ECA"/>
<path d="M108.308 303.428C108.308 303.428 95.6036 318.518 106.702 330.683C106.702 330.683 116.72 318.305 108.308 303.428Z" fill="#12B3D8"/>
<path d="M169.359 292.037L210.021 280.227L240.259 271.446C240.606 271.346 240.958 271.26 241.313 271.202C246.191 270.309 251.1 273.016 252.747 277.666C254.439 282.442 252.121 287.672 247.39 289.781L246.438 290.206L196.435 320.305C190.22 324.045 182.776 325.369 175.597 324.009L169.393 322.833L169.359 292.037Z" fill="#0B4177"/>
<path d="M250.528 269.936C253.746 270.585 256.598 272.77 257.851 276.05L283.458 343.265L287.509 353.897L281.173 356.341L274.695 345.034L241.831 287.676L239.776 284.091C239.183 283.049 238.803 281.95 238.629 280.84C238.032 277.021 239.851 273.068 243.509 271.024C245.738 269.778 248.226 269.464 250.528 269.936Z" fill="#0B4177"/>
<path d="M287.512 353.899L296.368 357.605L281.065 359.593L281.061 356.323L287.512 353.899Z" fill="#0B4177"/>
<path d="M222.635 278.095L187.882 237.972C182.982 232.314 184.293 223.777 190.68 219.747C196.912 215.815 205.281 217.893 208.795 224.244L234.34 270.412C236.093 273.58 235.037 277.522 231.916 279.463C228.907 281.335 224.934 280.749 222.635 278.095Z" fill="#21C7ED"/>
<path d="M279.384 270.258L229.352 280.497C225.472 281.292 221.684 278.812 220.995 275.027C220.273 271.058 223.252 267.355 227.399 267.066L278.472 263.502L279.384 270.258Z" fill="#21C7ED"/>
<path d="M277.897 264.286C277.897 264.286 281.005 260.435 283.36 260.316C285.715 260.197 283.449 263.425 283.449 263.425C283.449 263.425 292.413 261.215 292.565 265.219C292.716 269.223 284.517 271.589 278.844 270.029L277.897 264.286Z" fill="#F4A484"/>
<path d="M137.315 214.64L195.025 217.356C201.032 217.638 205.603 222.696 205.089 228.504C203.645 244.864 200.059 276.97 192.591 302.356C192.591 302.356 177.065 306.441 165.498 305.897C155.583 305.431 142.168 296.481 142.168 296.481C134.501 251.172 137.315 214.64 137.315 214.64Z" fill="#26D1FF"/>
<path d="M225.682 282.791C227.335 287.575 224.968 292.796 220.22 294.861L219.24 295.286L195.874 305.439L170.857 321.976C161.33 328.275 148.253 323.246 145.772 312.331L142.169 296.481L156.373 292.484L213.251 276.47C214.47 276.122 215.707 276.014 216.902 276.111C220.826 276.424 224.359 278.959 225.682 282.791Z" fill="#0A468F"/>
<path d="M265.682 355.318L259.602 358.315L252.875 348.786L211.459 290.106C211.281 289.856 211.117 289.599 210.979 289.339C210.279 288.138 209.883 286.838 209.76 285.528C209.448 282.207 210.921 278.82 213.929 276.761C218.544 273.595 224.818 274.804 227.906 279.156C228.198 279.564 228.461 280.007 228.691 280.472L260.95 345.742L265.682 355.318Z" fill="#0A468F"/>
<path d="M265.68 355.318L274.854 358.21L259.808 361.567L259.49 358.312L265.68 355.318Z" fill="#0B4177"/>
<path d="M146.656 272.749C146.656 272.749 150.472 269.549 152.806 269.873C155.14 270.196 152.275 272.94 152.275 272.94C152.275 272.94 161.51 272.444 160.863 276.401C160.217 280.359 151.701 281.15 146.444 278.562L146.656 272.749Z" fill="#FFB18E"/>
<path d="M175.08 228.499L164.393 216.204L167.703 205.422L180.218 209.031L175.08 228.499Z" fill="#FFB18E"/>
<path d="M187.843 199.923C187.531 206.334 184.916 215.789 179.668 214.277C174.421 212.764 164.5 204.35 166.423 198.085C168.346 191.821 174.159 187.969 179.407 189.482C184.655 190.995 188.161 193.394 187.843 199.923Z" fill="#FFBCA1"/>
<path d="M177.116 198.638C177.116 198.638 192.618 199.109 191.243 192.693C189.868 186.278 179.856 182.101 171.01 186.738C171.01 186.738 154.908 191.818 166.638 208.891C166.638 208.891 175.907 208.73 177.116 198.638Z" fill="#264E81"/>
<path d="M174.875 201.673C174.875 201.673 173.254 196.841 170.959 198.932C168.664 201.023 171.157 206.684 173.076 207.001L174.875 201.673Z" fill="#FFBCA1"/>
<path d="M179.46 206.776L184.887 208.798C184.887 208.798 183.306 210.513 182.338 210.182C181.37 209.85 179.261 207.866 179.46 206.776Z" fill="white"/>
<path d="M175.08 228.499L161.427 215.775L164.686 214.756L175.08 228.499Z" fill="white"/>
<path d="M175.08 228.499L178.474 215.639L178.098 225.675L175.08 228.499Z" fill="white"/>
<path d="M164.527 227.746L168.729 222.58L161.426 215.782L164.527 227.746Z" fill="white"/>
<path d="M178.098 225.675L179.87 228.804C179.87 228.804 180.947 219.56 178.458 216.05L178.098 225.675Z" fill="white"/>
<path d="M102.308 268.848L145.041 236.769C151.066 232.245 151.651 223.633 146.289 218.383C141.057 213.261 132.424 213.574 127.602 219.06L92.5477 258.937C90.1423 261.673 90.3128 265.742 92.9389 268.28C95.4705 270.727 99.4824 270.97 102.308 268.848Z" fill="#21C7ED"/>
<path d="M148.527 272.39L99.8661 257.159C96.0919 255.978 92.0592 258.061 90.9669 261.757C89.8221 265.631 92.3871 269.615 96.4809 270.321L146.893 279.018L148.527 272.39Z" fill="#21C7ED"/>
<path d="M185.493 200.918C185.493 200.918 189.476 204.081 189 208.584C189 208.584 185.623 208.481 185.231 207.092C184.839 205.703 185.493 200.918 185.493 200.918Z" fill="#FFBCA1"/>
<path d="M278.473 209.918L278.322 203.957L295.999 201.296L354.291 192.519C355.973 192.269 357.618 192.479 359.088 193.067C361.858 194.172 363.989 196.592 364.53 199.654C365.477 204.978 361.252 209.841 355.678 209.848L296.675 209.902L278.473 209.918Z" fill="#22273F"/>
<path d="M364.504 202.54C365.609 197.91 362.745 193.26 358.015 192.006L284.547 171.711L274.424 197.231L354.439 209.324C359.094 209.906 363.446 206.972 364.504 202.54Z" fill="#22273F"/>
<path d="M273.55 207.71L264.888 206.957L277.414 201.073L278.369 203.872L273.55 207.71Z" fill="#F4A07F"/>
<path d="M319.234 212.183C319.457 212.94 319.581 213.737 319.583 214.562C319.588 219.96 314.584 224.068 309.086 223.168L258.381 214.844L232.97 210.669L233.848 204.771L258.59 205.121L310.721 205.86C314.779 205.917 318.171 208.574 319.234 212.183Z" fill="#2D3353"/>
<path d="M318.561 218.843C321.001 214.72 319.647 209.466 315.493 206.94L283.798 178.119L258.966 172.568L258.293 173.653C251.003 185.412 256 200.701 268.945 206.249L306.902 222.516C311.185 224.377 316.226 222.789 318.561 218.843Z" fill="#2D3353"/>
<path d="M232.971 210.672L226.004 215.717L231.274 203.231L233.913 204.695L232.971 210.672Z" fill="#FFB18E"/>
<path d="M300.712 89.9533C300.712 89.9533 300.477 101.394 301.65 105.121C301.65 105.121 295.305 104.844 294.557 104.136C293.808 103.428 295.554 91.7164 300.712 89.9533Z" fill="#34517D"/>
<path d="M327.434 163.679L299.1 125.252C295.104 119.834 296.901 112.249 302.933 109.061C308.819 105.95 316.192 108.387 318.891 114.335L338.512 157.569C339.858 160.535 338.624 164.006 335.677 165.539C332.838 167.017 329.308 166.221 327.434 163.679Z" fill="#F4A484"/>
<path d="M318.891 114.336C316.191 108.388 308.819 105.951 302.933 109.062C296.9 112.25 295.104 119.835 299.1 125.253L314.263 145.817C319.774 145.378 327.074 140.863 329.173 136.992L318.891 114.336Z" fill="#F25555"/>
<path d="M376.095 143.217L336.21 165.627C333.117 167.365 329.153 166.273 327.464 163.219C325.693 160.016 327.17 156.032 330.639 154.654L373.352 137.678L376.095 143.217Z" fill="#F4A484"/>
<path d="M372.934 137.637C372.934 137.637 376.847 135.389 378.865 136.037C380.884 136.686 377.889 138.677 377.889 138.677C377.889 138.677 386.165 139.666 384.939 143.077C383.714 146.488 376.027 145.873 371.79 142.763L372.934 137.637Z" fill="#F4A484"/>
<path d="M265.688 150.442L260.119 116.863C258.885 109.42 265.317 102.891 273.045 103.741L309.42 107.743C314.808 108.336 318.617 113.144 317.807 118.34C317.542 120.041 316.651 122.705 315.39 125.889C315.437 128.34 316.125 131.4 316.518 133.258C317.916 139.869 315.101 142.178 309.116 143.323C308.563 143.429 308.013 143.48 307.466 143.504C302.897 152.967 298.553 161.263 298.553 161.263L303.119 176.841C303.119 176.841 298.02 189.291 277.545 185.741C268.735 184.213 254.926 179.294 254.926 179.294L265.688 150.442Z" fill="#FF6160"/>
<path d="M240.711 153.308L260.671 110.22C263.485 104.145 268.987 105.441 274.869 108.884L275.574 107.705C281.313 111.064 282.038 115.197 280.376 121.283L251.741 159.5C249.776 162.122 246.06 162.839 243.209 161.145C240.461 159.513 239.391 156.157 240.711 153.308Z" fill="#FFBCA1"/>
<path d="M292.591 162.203L246.488 162.352C242.912 162.363 240.038 159.502 240.146 156.038C240.259 152.406 243.589 149.666 247.305 150.148L293.063 156.077L292.591 162.203Z" fill="#FFBCA1"/>
<path d="M292.351 156.537C292.351 156.537 296.279 154.315 298.293 154.977C300.306 155.638 297.298 157.61 297.298 157.61C297.298 157.61 305.567 158.655 304.317 162.057C303.066 165.46 295.384 164.793 291.169 161.654L292.351 156.537Z" fill="#FFBCA1"/>
<path d="M296.944 117.94L285.182 105.396L285.191 95.2536L296.963 95.2631L296.944 117.94Z" fill="#FFB18E"/>
<path d="M301.145 85.4962C302.571 91.1152 300.815 100.329 297.875 99.9334C295.32 99.5897 283.792 96.3836 283.798 90.4903C283.803 84.5975 286.155 78.5623 291.092 78.566C296.028 78.5707 299.693 79.774 301.145 85.4962Z" fill="#FFBCA1"/>
<path d="M295.996 94.4475L299.693 94.7303C299.693 94.7303 299.047 96.0569 298.393 96.0241C297.74 95.9913 296.078 95.1492 295.996 94.4475Z" fill="white"/>
<path d="M292.511 87.4917C292.511 87.4917 297.299 87.4674 301.988 87.9218C304.206 88.1368 304.483 73.8934 290.12 75.9795C290.12 75.9795 267.022 75.7708 285.183 104.136C285.183 104.136 294.321 99.4732 292.511 87.4917Z" fill="#34517D"/>
<path d="M280.846 79.4166C280.846 79.4166 271.929 89.2389 278.917 102.461L285.183 104.136L280.846 79.4166Z" fill="#34517D"/>
<path d="M277.031 105.267C271.149 101.825 263.485 104.144 260.671 110.22L250.61 131.939C250.61 131.939 251.951 140.84 264.686 142.222L280.376 121.283C284.316 116.025 282.771 108.626 277.031 105.267Z" fill="#FF6160"/>
<path d="M300.604 88.9716L303.118 93.4069L300.263 93.8703L300.604 88.9716Z" fill="#FFBCA1"/>
<path d="M180.062 373.528C180.062 373.528 114.26 367.886 106.409 354.631C101.019 345.531 111.594 324.188 118.753 311.702C121.992 306.051 128.879 303.39 135.231 305.359C154.01 311.181 191.668 323.63 198.497 331.797C207.666 342.764 188.541 374.396 180.062 373.528Z" fill="#FF6160"/>
<path d="M106.408 354.632C103.813 350.25 104.921 343.028 107.565 335.324C127.709 333.839 163.687 351.883 175.295 358.164C189.463 365.832 180.062 373.529 180.062 373.529C180.062 373.529 114.26 367.886 106.408 354.632Z" fill="#E55353"/>
<path d="M167.815 352.214C167.815 352.214 144.125 340.985 152.146 326.227C160.168 311.469 179.783 321.102 179.783 321.102" stroke="#B23B3B" stroke-miterlimit="10"/>
<path d="M160.401 334.338C162.781 334.338 164.709 332.469 164.709 330.163C164.709 327.857 162.781 325.988 160.401 325.988C158.022 325.988 156.093 327.857 156.093 330.163C156.093 332.469 158.022 334.338 160.401 334.338Z" fill="white"/>
<path d="M200.762 337.262C200.762 337.262 191.172 367.043 183.101 367.954C175.031 368.865 132.515 355.897 132.515 355.897" stroke="#4C2C1C" stroke-miterlimit="10" stroke-dasharray="5 5"/>
<path d="M134.227 340.058C134.227 340.058 134.547 360.457 127.35 364.99C120.153 369.523 106.384 363.454 104.057 355.085C101.731 346.716 107.566 335.324 107.566 335.324C107.566 335.324 116.417 331.407 134.227 340.058Z" fill="#CE4949"/>
<path d="M128.407 364.162C128.407 364.162 130.937 355.276 131.572 348.146C131.868 344.821 129.893 341.685 126.686 340.47C124.182 339.522 120.493 338.708 115.108 338.559" stroke="#4C2C1C" stroke-miterlimit="10" stroke-dasharray="5 5"/>
<path d="M110.563 356.942C112.132 356.942 113.404 355.709 113.404 354.189C113.404 352.668 112.132 351.435 110.563 351.435C108.994 351.435 107.722 352.668 107.722 354.189C107.722 355.709 108.994 356.942 110.563 356.942Z" fill="white"/>
<path d="M197.334 363.256C197.334 363.256 190.603 364.367 190.036 363.424L189.504 366.983C189.504 366.983 194.744 369.093 197.334 363.256Z" fill="#CE4949"/>
<path d="M199.455 354.518C199.455 354.518 201.821 350.693 199.098 346.934C199.098 346.934 197.238 349.115 197.718 350.568C198.198 352.021 199.455 354.518 199.455 354.518Z" fill="#CE4949"/>
<path d="M200.603 351.131C200.603 351.131 203.614 364.154 195.844 366.139C190.44 367.518 197.649 360.792 197.708 356.936C197.767 353.08 200.603 351.131 200.603 351.131Z" fill="#E55353"/>
<path d="M442.823 223.107L497.222 192.843C504.892 188.575 506.982 178.765 501.683 171.902C496.513 165.206 486.538 164.231 480.092 169.791L433.235 210.206C430.02 212.979 429.546 217.682 432.148 221.006C434.654 224.209 439.225 225.108 442.823 223.107Z" fill="#ED8772"/>
<path d="M379.444 209.808L436.92 224.111C441.378 225.22 445.897 222.53 446.892 218.175C447.934 213.608 444.673 209.171 439.879 208.633L380.853 202.02L379.444 209.808Z" fill="#ED8772"/>
<path d="M381.478 202.956C381.478 202.956 378.074 198.34 375.349 198.089C372.625 197.837 375.085 201.689 375.085 201.689C375.085 201.689 364.807 198.691 364.425 203.325C364.042 207.96 373.426 211.101 380.082 209.569L381.478 202.956Z" fill="#ED8772"/>
<path d="M488.291 165.189C488.291 165.189 482.515 163.774 458.435 188.47C458.435 188.47 460.584 206.811 474.245 212.107C474.245 212.107 499.256 199.573 500.411 187.922C501.566 176.272 506.163 162.581 488.291 165.189Z" fill="#FFCF61"/>
<path d="M550.805 323.205C544.545 322.419 540.044 316.982 540.607 310.889L548.266 227.976L584.575 227.596L563.767 314.482C562.4 320.186 556.796 323.957 550.805 323.205Z" fill="#293357"/>
<path d="M648.437 368.328H635.421L546.438 325.466C540.015 322.372 538.012 314.42 542.241 308.805C545.968 303.859 553.099 302.723 558.262 306.254L648.437 368.328Z" fill="#293357"/>
<path d="M639.868 366.678L630.538 372.671L648.436 371.899L647.749 368.164L639.868 366.678Z" fill="#E01E1E"/>
<path d="M460.708 278.552C457.824 273.111 459.889 266.434 465.385 263.426L540.177 222.495L561.101 251.257L475.474 283.948C469.852 286.094 463.468 283.761 460.708 278.552Z" fill="#293357"/>
<path d="M455.477 370.642L447.625 369.674L457.778 273.874C458.512 266.958 465.49 262.348 472.4 264.213C478.487 265.857 482.089 271.93 480.492 277.856L455.477 370.642Z" fill="#293357"/>
<path d="M447.626 369.674L438.774 376.317L456.566 374.271L455.597 370.594L447.626 369.674Z" fill="#E01E1E"/>
<path d="M554.419 152.255C562.741 168.625 575.139 195.516 584.44 226.531C584.44 226.531 560.468 240.91 549.008 242.038C532.124 243.699 516.985 235.186 516.985 235.186C517.445 202.02 497.719 221 481.522 182.816C478.863 176.547 480.135 169.446 486.292 166.233L528.492 144.21C537.927 139.286 549.683 142.94 554.419 152.255Z" fill="#FFCF61"/>
<path d="M561.552 217.211L546.479 226.24C546.479 226.24 556.09 285.744 605.677 266.005L561.552 217.211Z" fill="#AF1E1E"/>
<path d="M561.552 217.211C561.552 217.211 572.754 261.889 585.868 266.125C598.983 270.362 620.02 265.066 617.561 250.238C615.102 235.409 592.152 206.04 592.152 206.04C592.152 206.04 572.324 205.633 561.552 217.211Z" fill="#E01E1E"/>
<path d="M497.257 160.51C497.257 160.51 519.785 204.408 560.265 225.569C563.667 227.348 564.203 231.857 561.263 234.287L561.237 234.308C559.436 235.797 556.856 235.992 554.837 234.798C544.557 228.72 513.398 207.827 488.292 165.189C488.291 165.189 490.221 160.084 497.257 160.51Z" fill="#E01E1E"/>
<path d="M519.057 149.133L511.813 174.506L502.531 157.758L519.057 149.133Z" fill="#FFE2AE"/>
<path d="M496.534 212.442L523.095 157.37C526.841 149.604 536.751 146.765 544.251 151.308C551.57 155.74 553.408 165.292 548.23 171.984L510.601 220.621C508.018 223.958 503.223 224.809 499.588 222.576C496.084 220.423 494.777 216.083 496.534 212.442Z" fill="#F59179"/>
<path d="M447.918 236.885L499.695 208.789C503.711 206.61 508.791 208.089 510.903 212.051C513.119 216.206 511.139 221.306 506.647 223.015L451.338 244.064L447.918 236.885Z" fill="#F59179"/>
<path d="M450.132 236.88C450.132 236.88 445.037 234.084 442.457 234.968C439.878 235.853 443.784 238.342 443.784 238.342C443.784 238.342 433.16 239.82 434.827 244.179C436.495 248.538 446.37 247.555 451.741 243.447L450.132 236.88Z" fill="#F59179"/>
<path d="M511.137 170.829L517.446 151.21L511.06 139.717L497.719 146.679L511.137 170.829Z" fill="#ED8772"/>
<path d="M486.838 138.075C488.754 145.288 494.027 155.433 499.621 152.513C505.216 149.593 514.438 137.765 510.727 131.087C507.017 124.409 499.474 121.362 493.88 124.281C488.286 127.202 484.887 130.73 486.838 138.075Z" fill="#F59179"/>
<path d="M498.714 134.162C498.714 134.162 475.837 141.931 475.837 121.91C475.837 110.213 487.21 121.303 502.753 119.245C509.442 118.359 522.286 121.333 513.115 143.414C513.114 143.414 502.544 145.352 498.714 134.162Z" fill="#26344F"/>
<path d="M500.411 138.838C500.411 138.838 500.602 132.945 503.858 134.555C507.114 136.164 506.229 143.255 504.197 144.211L500.411 138.838Z" fill="#F59179"/>
<path d="M496.831 143.216L492.913 148.539C492.913 148.539 495.576 149.218 496.294 148.297C497.012 147.376 497.743 144.147 496.831 143.216Z" fill="#FFFFEA"/>
<path d="M512.508 179.32C512.508 179.32 523.879 193.332 536.447 195.173C536.447 195.173 562.699 168.86 546.55 153.028C524.972 131.874 512.508 179.32 512.508 179.32Z" fill="#FFD278"/>
<path d="M487.678 139.717C487.678 139.717 489.727 147.232 487.678 147.894C487.678 147.894 491.161 149.331 492.254 145.998C493.347 142.664 487.678 139.717 487.678 139.717Z" fill="#F59179"/>
<path d="M588.913 214.08C585.238 214.907 582.591 216.962 583.001 218.672C583.41 220.381 586.721 221.097 590.395 220.27C594.07 219.444 596.717 217.388 596.308 215.678C595.898 213.969 592.587 213.253 588.913 214.08Z" fill="#FFE2AE"/>
<path d="M220.648 180.555C220.648 180.555 216.203 174.471 214.977 168.682C214.977 168.682 215.642 175.764 217.002 177.896C218.363 180.027 211.652 171.739 210.172 170.337C210.172 170.337 215.245 176.465 213.819 180.284C213.819 180.284 210.892 171.14 207.159 168.976C207.159 168.976 209.434 178.342 211.849 181.765C211.849 181.765 208.914 178.226 205.21 175.381C205.21 175.381 207.339 180.75 209.8 182.471C209.8 182.471 205.402 179.998 202.459 174.08C202.459 174.08 201.834 178.418 204.295 181.316C204.295 181.316 200.378 178.949 198.696 170.146C198.696 170.146 197.393 175.211 200.378 178.949C200.378 178.949 198.132 174.407 194.63 173.291L199.525 189.969L211.157 188.695L220.648 180.555Z" fill="white"/>
<path d="M129.462 211.799C129.462 211.799 125.016 205.715 123.791 199.926C123.791 199.926 124.455 207.008 125.816 209.14C127.176 211.271 120.465 202.983 118.985 201.581C118.985 201.581 124.059 207.709 122.632 211.528C122.632 211.528 119.705 202.384 115.973 200.22C115.973 200.22 118.247 209.586 120.662 213.009C120.662 213.009 117.728 209.47 114.023 206.625C114.023 206.625 116.152 211.994 118.613 213.715C118.613 213.715 114.215 211.243 111.272 205.324C111.272 205.324 110.648 209.662 113.109 212.56C113.109 212.56 109.191 210.194 107.509 201.39C107.509 201.39 106.207 206.455 109.191 210.194C109.191 210.194 106.946 205.652 103.443 204.535L108.338 221.213L119.97 219.94L129.462 211.799Z" fill="white"/>
<path d="M613.598 197.711C613.598 197.711 619.596 193.045 622.414 187.804C622.414 187.804 619.769 194.437 617.857 196.125C615.945 197.812 624.746 191.628 626.566 190.675C626.566 190.675 619.952 195.216 620.241 199.268C620.241 199.268 625.646 191.255 629.848 190.167C629.848 190.167 625.008 198.568 621.715 201.217C621.715 201.217 625.54 198.595 629.908 196.845C629.908 196.845 626.34 201.441 623.485 202.441C623.485 202.441 628.415 201.234 632.922 196.326C632.922 196.326 632.293 200.664 629.106 202.795C629.106 202.795 633.543 201.562 637.655 193.545C637.655 193.545 637.473 198.763 633.544 201.562C633.544 201.562 636.99 197.793 640.673 197.651L631.242 212.385L620.418 208.064L613.598 197.711Z" fill="white"/>
<defs>
<linearGradient id="paint0_linear_111:4" x1="377.67" y1="26.961" x2="377.67" y2="481.447" gradientUnits="userSpaceOnUse">
<stop stop-color="#FF91E7"/>
<stop offset="1" stop-color="#2ED3FF"/>
</linearGradient>
</defs>
</svg>
