<?xml version="1.0" encoding="utf-8"?>
<!-- Generator: Adobe Illustrator 25.2.0, SVG Export Plug-In . SVG Version: 6.00 Build 0)  -->
<svg version="1.1" xmlns="http://www.w3.org/2000/svg" xmlns:xlink="http://www.w3.org/1999/xlink" x="0px" y="0px"
	 viewBox="0 0 1920 540" style="enable-background:new 0 0 1920 540;" xml:space="preserve">
<style type="text/css">
	.st0{fill:#0DA5CE;}
	.st1{fill:#24578C;}
	.st2{fill:#2C5E84;}
	.st3{fill:#336797;}
	.st4{fill:#4187AA;}
	.st5{fill:#E5F4F9;}
	.st6{fill:none;stroke:#2C5E84;stroke-miterlimit:10;}
	.st7{display:none;}
	.st8{display:inline;fill:#EA86FB;}
	.st9{display:inline;fill:#B869C9;}
	.st10{display:inline;}
	.st11{fill:none;stroke:#35527E;stroke-miterlimit:10;}
	.st12{fill:#12B3D8;}
	.st13{fill:#039ECA;}
	.st14{fill:#35527E;}
	.st15{fill:none;stroke:#6488BC;stroke-miterlimit:10;}
</style>
<g id="Layer_3">
</g>
<g id="Layer_4">
</g>
<g id="Layer_2">
</g>
<g id="bushes">
	<path class="st0" d="M556.5,477.2c-5.5-4.5-9.9-10.4-10.9-17.2c-3.7,1.6-6.7,4.3-9.5,7.2c-2.9,3-5.7,6.3-8.2,9.7
		c0.7,2,1.4,3.7,1.6,4.3c2.1,5.8,5.7,14.7,10.1,19.2c-3.3-0.7-5-4.2-7.4-6.6c-1.7-1.7-3.9-2.8-5.9-4c-1.6-0.9-3.1-1.9-4.6-2.9
		c-2.1,3.9-3.8,8.1-4.9,12.4c3.6,3.1,7.6,5.7,11.9,7.7c2,1,5,1.8,6.2,3.6c-3.4,2.3-9.2-0.2-12.7-1.5l-6.8-2.6
		c-0.4,3.4-0.4,6.7,0,10.1c0.1,1,0.3,2.1,0.5,3.1c3.2,1,6.5,1.8,9.8,2.4c2.9,0.5,11.7,0,13,2.5c-1.6,0.4-3.3,0.8-4.9,1
		c-1.2,0.2-2.3,0.4-3.5,0.5c-1.9,0.2-3.7,0.2-5.6,0.2l-6.4,0.1c3.2,6,9.1,10.4,15.4,13.2c10.6,4.6,22.5,5.3,33.5,2
		c6-1.8,8.3-1.7,14.6-1.1c5.4,0.5,11.2,0.3,15.8-2.7c2.1-1.4,3.9-3.2,5.2-5.4c4.1-6.3,4.9-14.3,2.1-21.3c-0.6-1.4-1.3-2.8-2.1-4.1
		c-8.1,4.1-21,10.9-24,10.8c3.4-5.1,8.3-9.5,13.1-13.3c1.8-1.3,3.5-2.7,5.1-4.2c-3.4-3-7.2-5.5-11.2-7.5l-0.6-0.3
		c-4.1,5.4-8.1,10.7-12.2,16.1c-1.1,1.5-3.6,6-6,3.2c-1.1-1.3,2.2-8.1,2.7-9.7c1.6-4.8,3.2-9.7,5-14.4c-4.6-2-9.2-4.1-13.5-6.8
		c-0.3-0.2-0.5-0.3-0.8-0.5c-2.1,3.3-4.2,6.8-4.6,7.4C556,484.1,556.1,480.6,556.5,477.2z M573.7,531c2.2-1.2,4.9-1.2,7.4-0.7
		c2.5,0.5,4.8,1.6,7.1,2.7c0.5,0.2,1,0.5,1.3,1c0.3,0.8-0.4,1.6-1.2,1.8c-0.8,0.1-1.7,0-2.4-0.3l-0.8-0.7c-3.8,0-7.6-0.4-11.4-1
		c-0.4,0-0.7-0.1-1-0.4C571.9,532.8,572.7,531.5,573.7,531L573.7,531z M543.9,486.7c-0.2,1.4-1.1,2.8-2.6,3.1l-0.9-0.9
		c-2.5-3.7-4.2-8-5-12.4c1.7-0.5,3.4,0.9,4.6,2.2C542.1,481,544.3,483.8,543.9,486.7L543.9,486.7z M543.1,520.8l-1.5-0.1
		c-4-0.3-7.9-1.3-11.7-2.7c-0.4-0.8,0.6-1.6,1.5-1.8c2.9-0.8,6,0.6,8.8,1.9C541.4,518.7,542.8,519.5,543.1,520.8L543.1,520.8z
		 M548.3,535.4c6.9,0.7,3.4,3.7-1.8,3.2c-5.9-0.6-11.6-2.3-16.8-5.1L548.3,535.4z"/>
	<path class="st1" d="M605.1,498.5c-4-4.1-7-9.1-7.2-14.6c-3.1,0.9-5.7,2.9-8.2,5c-2.6,2.2-5.1,4.5-7.4,7c0.4,1.7,0.8,3.1,0.9,3.5
		c1.2,4.8,3.3,12.2,6.4,16.2c-2.6-0.9-3.6-3.8-5.4-5.9c-1.2-1.5-2.8-2.6-4.4-3.7c-1.2-0.9-2.3-1.8-3.4-2.7c-2,2.9-3.7,6.1-5,9.4
		c2.6,2.8,5.6,5.2,8.8,7.2c1.6,0.9,3.8,1.9,4.6,3.4c-2.9,1.6-7.4-0.9-10-2.3l-5.2-2.7c-0.6,2.6-0.9,5.3-0.9,8.1
		c0,0.8,0.1,1.7,0.2,2.5c2.5,1,5,2,7.6,2.7c2.3,0.7,9.3,1,10.2,3.1c-1.3,0.2-2.7,0.3-4,0.3c-0.9,0.1-1.9,0.1-2.9,0.1
		c-1.5,0-3-0.2-4.5-0.3l-5.1-0.5c2,5.1,6.3,9.1,11.2,11.8c8.1,4.5,17.5,6.1,26.6,4.4c5-0.9,6.8-0.7,11.8,0.4
		c4.3,0.9,8.9,1.2,12.8-0.8c1.8-0.9,3.4-2.2,4.6-3.8c3.8-4.7,5.1-11,3.5-16.8c-0.3-1.2-0.8-2.3-1.3-3.5c-6.8,2.6-17.7,6.9-20,6.6
		c3.1-3.8,7.4-6.9,11.6-9.5c1.5-0.9,3-1.9,4.5-2.9c-2.5-2.7-5.2-5-8.3-7l-0.5-0.3c-3.7,3.9-7.4,7.9-11,11.8c-1,1.1-3.4,4.4-5,2
		c-0.8-1.1,2.5-6.3,3-7.5c1.7-3.7,3.4-7.4,5.2-11c-3.5-2-6.9-4.1-10.2-6.6l-0.6-0.5c-2,2.4-3.9,5.1-4.3,5.5
		C604.1,504,604.5,501.3,605.1,498.5z M614.2,543c1.9-0.7,4-0.6,6,0.1c1.9,0.7,3.7,1.6,5.4,2.8c0.4,0.2,0.7,0.5,0.9,0.9
		c0.2,0.6-0.4,1.2-1.1,1.3c-0.7,0-1.3-0.1-1.9-0.5l-0.5-0.7c-3-0.4-6-0.9-9-1.8c-0.3,0-0.5-0.2-0.8-0.4
		C612.6,544.2,613.4,543.3,614.2,543L614.2,543z M594.2,505.1c-0.2,1.2-1.2,2.1-2.3,2.3l-0.6-0.8c-1.7-3.2-2.7-6.7-2.9-10.3
		c1.4-0.3,2.6,1,3.5,2.2C593.3,500.4,594.8,502.7,594.2,505.1z M590.7,532.1l-1.2-0.2c-3.2-0.6-6.2-1.7-9.1-3.2
		c-0.2-0.7,0.6-1.2,1.3-1.3c2.4-0.4,4.8,1,6.8,2.3C589.5,530.3,590.6,531.1,590.7,532.1L590.7,532.1z M593.5,544.2
		c5.5,1.2,2.4,3.2-1.7,2.4c-4.6-1-9-2.9-12.9-5.5L593.5,544.2z"/>
	<g>
		<path class="st2" d="M577.2,250.1l-10.4,0l0.1,5.3l10.4,0L577.2,250.1z"/>
		<path class="st2" d="M579.4,251.7l-14.7,0.1l0-0.3c-0.1-4,3.2-7.2,7.2-7.2c4.1,0,7.4,3.2,7.5,7.1L579.4,251.7z"/>
		<path class="st2" d="M611.2,532.6l-67.2,0.3l0.2,10.6l67.2-0.3L611.2,532.6z"/>
		<path class="st3" d="M599,524.7l-43.2,0.2l0.2,8l43.2-0.2L599,524.7z"/>
		<path class="st4" d="M594.5,517.9l-34.4,0.1l-4.2,6.9l43.2-0.2L594.5,517.9z"/>
		<path class="st2" d="M581.8,483.6l-9.3,0l0.4,18.9l9.3,0L581.8,483.6z"/>
		<path class="st3" d="M577.5,500.9c-5.3,0-9.5,4.2-9.4,9.3l0.2,7.7l19.1-0.1l-0.2-7.7C587.2,505,582.8,500.9,577.5,500.9z"/>
		<path class="st2" d="M577.2,355.4l-6.3,0l2.4,116.2l6.3,0L577.2,355.4z"/>
		<path class="st4" d="M582.3,495.6l-9.3,0c-1.7,0-3-1.3-3.1-2.9c0-1.6,1.3-2.9,2.9-2.9l9.3,0c1.7,0,3,1.3,3.1,2.9
			C585.3,494.2,584,495.6,582.3,495.6z"/>
		<path class="st4" d="M580.3,485.5l-6.4,0c-2.9,0-5.2-2.6-4.6-5.3l2.5-12.2l10,0l3,12.2C585.3,482.9,583.2,485.5,580.3,485.5z"/>
		<path class="st4" d="M574.2,358.7c-2.9,0-5.2-2.2-5.3-5l-0.1-6.6l10.4,0l0.1,6.6C579.4,356.4,577.1,358.7,574.2,358.7z"/>
		<path class="st2" d="M580.8,344.8l-13.7,0.1l0,2.1l13.7-0.1L580.8,344.8z"/>
		<path class="st2" d="M586.1,338.4l-24.6,0.1l-3.4-8l31.1-0.1L586.1,338.4z"/>
		<path class="st2" d="M579.7,344.8l-11.5,0.1l-1.8-6.4l14.8-0.1L579.7,344.8z"/>
		<path class="st5" d="M551.2,285.9c0,1.6,6.9,44.6,6.9,44.6l31.1-0.1l5.6-44.7l-24.1-3.1L551.2,285.9z"/>
		<path class="st6" d="M570.8,282.6l1,47.9"/>
		<path class="st2" d="M595.4,286.2l-44.2,0.2l-5.1-9l54.6-0.2L595.4,286.2z"/>
		<path class="st4" d="M595.1,272.1l-44.2,0.2l-4.8,5.1l54.6-0.2L595.1,272.1z"/>
		<path class="st3" d="M575.1,253.4l-5.5,0c-10.6,0-18.9,8.4-18.7,18.7l43.7-0.2C594.4,261.6,585.6,253.3,575.1,253.4z"/>
		<path class="st4" d="M569.6,253.4c-0.2,0-0.4,0-0.5,0l0.4,18.6l6,0l-0.4-18.6L569.6,253.4z"/>
	</g>
</g>
<g id="Layer_5" class="st7">
	<path class="st8" d="M1284.8,501.8c-0.3-0.3-1.8-2.7-3.4-4.7l-0.6,0.5c-3.2,2.5-6.6,4.8-10.1,7c1.4,3.2,2.6,6.5,3.8,9.8
		c0.4,1.1,2.9,5.6,2.1,6.7c-1.8,2.4-3.6-0.5-4.5-1.5c-3-3.3-6.1-6.7-9.1-10c-0.2,0.1-0.3,0.2-0.5,0.3c-3,2.1-5.8,4.5-8.4,7.2
		c1.2,0.9,2.5,1.6,3.9,2.3c3.6,2,7.3,4.6,9.8,7.8c-2.2,0.5-11.9-2.6-18-4.4c-0.6,1.1-1.2,2.2-1.6,3.3c-2.1,5.5-1.5,11.4,1.6,15.3
		c1,1.4,2.4,2.4,3.9,3.2c3.5,1.5,7.8,0.8,11.9-0.4c4.7-1.4,6.4-1.8,11-1.3c8.2,0.8,17.3-1.5,25.2-6.4c4.8-3,9.2-7.1,11.6-12
		l-4.8,0.9c-1.4,0.3-2.8,0.5-4.2,0.7c-0.9,0.1-1.8,0.1-2.7,0.2c-1.2,0.1-2.5,0.1-3.7,0c1-2,7.6-2.9,9.8-3.8c2.5-0.9,4.9-2,7.3-3.2
		c0.2-0.8,0.3-1.6,0.4-2.4c0.3-2.5,0.3-5,0-7.4l-5.1,2.9c-2.6,1.5-7,4.2-9.6,3c0.9-1.5,3.1-2.6,4.6-3.6c3.3-2.1,6.3-4.6,8.9-7.5
		c-0.9-2.9-2.1-5.7-3.7-8.3c-1.1,1-2.3,1.9-3.5,2.8c-1.6,1.1-3.1,2.4-4.5,3.9c-1.8,2.1-3.1,4.9-5.6,6c3.3-4,6-11,7.6-15.6
		c0.2-0.5,0.6-1.8,1.2-3.4c-1.9-2.1-3.9-4.1-6.1-5.9c-2.1-1.7-4.3-3.3-7.1-3.9c-0.8,5.2-4,10.1-8.2,14.3
		C1284.8,496.7,1284.9,499.2,1284.8,501.8z M1272.4,537.9c-0.2,0.2-0.5,0.3-0.7,0.4c-2.8,1-5.7,1.8-8.6,2.4l-0.6,0.7
		c-0.5,0.3-1.2,0.6-1.8,0.6c-0.5,0-0.9-0.3-0.9-0.8c0-0.1,0-0.2,0-0.3c0.2-0.4,0.5-0.7,0.9-0.9c1.7-1.2,3.5-2.2,5.3-3.1
		c1.9-0.8,3.9-1.1,5.6-0.6C1272.3,536.5,1273,537.3,1272.4,537.9z M1296.9,492.8c0.9-1.2,2.2-2.5,3.5-2.3c-0.6,3.5-1.9,6.8-3.8,9.9
		l-0.7,0.8c-1-0.1-1.9-0.9-1.9-1.9C1293.7,497.2,1295.3,494.8,1296.9,492.8L1296.9,492.8z M1296.8,521.8c2.1-1.4,4.4-2.9,6.6-2.7
		c0.7,0,1.4,0.5,1.1,1.1c-2.8,1.6-5.7,2.8-8.8,3.7l-1.1,0.3C1294.8,523.2,1295.8,522.4,1296.8,521.8L1296.8,521.8z M1304.7,531.6
		c-3.8,2.8-8.1,4.9-12.6,6.3c-3.8,1.1-6.5-0.5-1.3-2.1L1304.7,531.6z"/>
	<path class="st9" d="M1269,516.7c-0.2-0.2-1.3-1.9-2.5-3.4l-0.4,0.3c-2.3,1.8-4.7,3.5-7.2,5c1,2.3,1.9,4.6,2.7,7
		c0.3,0.8,2.1,4,1.5,4.8c-1.3,1.7-2.6-0.4-3.2-1.1c-2.2-2.4-4.3-4.8-6.5-7.2l-0.3,0.2c-2.2,1.5-4.2,3.2-6,5.1
		c0.9,0.6,1.8,1.2,2.7,1.7c2.6,1.5,5.2,3.3,7,5.6c-1.6,0.4-8.5-1.8-12.9-3.1c-0.4,0.8-0.8,1.6-1.1,2.4c-1.5,3.9-1,8.1,1.1,10.9
		c0.7,1,1.7,1.7,2.8,2.3c2.5,1.1,5.6,0.6,8.5-0.3c3.4-1,4.6-1.3,7.8-1c5.8,0.6,12.3-1.1,18-4.6c3.4-2.1,6.6-5.1,8.3-8.6l-3.4,0.6
		c-1,0.2-2,0.4-3,0.5c-0.6,0.1-1.3,0.1-1.9,0.1c-0.9,0.1-1.8,0.1-2.7,0c0.7-1.4,5.4-2.1,7-2.7c1.8-0.7,3.5-1.4,5.2-2.3
		c0.1-0.6,0.2-1.1,0.3-1.7c0.2-1.8,0.2-3.5,0-5.3l-3.6,2.1c-1.8,1.1-5,3-6.8,2.1c0.6-1.1,2.2-1.8,3.3-2.6c2.3-1.5,4.5-3.3,6.4-5.3
		c-0.6-2.1-1.5-4.1-2.7-6c-0.8,0.7-1.6,1.3-2.5,2c-1.2,0.8-2.2,1.7-3.2,2.8c-1.3,1.5-2.2,3.5-4,4.3c2.4-2.9,4.3-7.9,5.4-11.1
		c0.1-0.3,0.5-1.3,0.9-2.4c-1.4-1.5-2.8-2.9-4.4-4.2c-1.5-1.2-3.1-2.4-5.1-2.8c-0.5,3.7-2.9,7.2-5.8,10.2
		C1268.9,513.1,1269,514.9,1269,516.7z M1260.1,542.5c-0.1,0.1-0.3,0.2-0.5,0.3c-2,0.7-4.1,1.3-6.1,1.7l-0.4,0.5
		c-0.4,0.2-0.8,0.4-1.3,0.4c-0.3,0-0.6-0.2-0.7-0.6c0-0.1,0-0.1,0-0.2c0.2-0.3,0.4-0.5,0.7-0.7c1.2-0.8,2.5-1.6,3.8-2.2
		c1.3-0.5,2.8-0.8,4-0.4C1260.1,541.5,1260.5,542.1,1260.1,542.5z M1277.6,510.3c0.7-0.8,1.6-1.8,2.5-1.6c-0.4,2.5-1.4,4.9-2.7,7
		l-0.5,0.6c-0.7,0-1.3-0.6-1.4-1.4C1275.3,513.4,1276.5,511.7,1277.6,510.3L1277.6,510.3z M1277.5,531c1.5-1,3.1-2,4.7-1.9
		c0.5,0,1,0.3,0.8,0.8c-2,1.1-4.1,2-6.2,2.7l-0.8,0.2C1276.1,532,1276.8,531.4,1277.5,531L1277.5,531z M1283.1,538
		c-2.7,2-5.8,3.5-9,4.5c-2.7,0.8-4.7-0.4-0.9-1.5L1283.1,538z"/>
	<g class="st10">
		<path class="st11" d="M1225.4,500.4c0,0,7.4,25.4,39.6,46.7"/>
		<path class="st12" d="M1225.9,501.9c0,0-12.1-8.8-10-19.3C1215.9,482.7,1227.8,493.1,1225.9,501.9z"/>
		<path class="st13" d="M1230.6,511.7c0,0-8.6-10.2-20.4-8.2C1210.1,503.5,1219.9,511.7,1230.6,511.7z"/>
		<path class="st12" d="M1236.8,496.9c0,0-9.9,7.6-5,16.7C1231.7,513.7,1240.3,504.7,1236.8,496.9z"/>
		<path class="st12" d="M1217.3,515.7c0,0,9.3-2.4,20.4,6.5C1237.7,522.2,1227.6,526.2,1217.3,515.7z"/>
		<path class="st13" d="M1241.9,506.4c0,0-8.8,11.5-1.2,19.5C1240.7,525.9,1247.4,513,1241.9,506.4z"/>
		<path class="st13" d="M1226.7,526.9c0,0,8.1-2.9,19.3,4.8C1246,531.7,1239.4,536.1,1226.7,526.9z"/>
		<path class="st12" d="M1247.7,516.7c0,0-7,11.9,2.1,19C1249.8,535.7,1255.3,526,1247.7,516.7z"/>
	</g>
	<g class="st10">
		<path class="st14" d="M1263.9,544c0,0-3.6-2-8.5-7.7c-4.3-5-20.2-9.4-35.4-6.2c0,0,4.4,23.8,34.2,16
			C1256.6,545.4,1260.6,543.1,1263.9,544z"/>
		<path class="st15" d="M1221,530.4c0,0,20.9,10,41.5,13.2"/>
		<path class="st15" d="M1222.6,535.2c0,0,4.3,0,7.2-0.9"/>
		<path class="st15" d="M1224.6,538.5c0,0,8-0.6,11.3-1.9"/>
		<path class="st15" d="M1228.7,542.8c0,0,8.9-0.5,12.9-4.3"/>
		<path class="st15" d="M1235.1,546.1c0,0,9.9-2.2,11-6.2"/>
		<path class="st15" d="M1226.6,529.6c0,0,2.6,2.5,2.8,4.5"/>
		<path class="st15" d="M1234.5,529.5c0,0,2.2,4.1,1.1,6.9"/>
		<path class="st15" d="M1239.3,530c0,0,2.8,4.7,1.9,8.3"/>
		<path class="st15" d="M1246.3,531.7c0,0,1.1,5.5-0.6,8.1"/>
		<path class="st15" d="M1249.6,532.9c0,0,2.6,4.8,1.6,8.4"/>
		<path class="st15" d="M1254.8,536.4c0,0,1.4,2.3,0.5,5.9"/>
	</g>
</g>
</svg>
