<svg xmlns="http://www.w3.org/2000/svg" xmlns:xlink="http://www.w3.org/1999/xlink" viewBox="0 0 685.29 454.49"><defs><style>.cls-1{fill:url(#linear-gradient);}.cls-2{fill:#0da5ce;}.cls-10,.cls-11,.cls-17,.cls-24,.cls-3,.cls-31,.cls-47,.cls-5{fill:none;stroke-miterlimit:10;}.cls-3{stroke:#2e547b;}.cls-4{fill:#24578c;}.cls-5{stroke:#2d679b;}.cls-6{fill:#fffef5;}.cls-7{fill:#edece6;}.cls-8{fill:#e2e1de;}.cls-9{fill:#2a5081;}.cls-10{stroke:#0ba4cd;}.cls-11{stroke:#35527e;}.cls-12{fill:#12b3d8;}.cls-13{fill:#039eca;}.cls-14{fill:#45d7ff;}.cls-15{fill:#15aacc;}.cls-16{fill:#0dcbff;}.cls-17{stroke:#4c2c1c;stroke-dasharray:5 5;}.cls-18{fill:#15a4bc;}.cls-19{fill:#fff;}.cls-20{fill:#2c5e84;}.cls-21{fill:#336797;}.cls-22{fill:#4187aa;}.cls-23{fill:#e5f4f9;}.cls-24{stroke:#2c5e84;}.cls-25{fill:#c6966e;}.cls-26{fill:#a37657;}.cls-27{fill:#b28562;}.cls-28{fill:#e8c0a3;}.cls-29{fill:#b78662;}.cls-30{fill:#35527e;}.cls-31{stroke:#6488bc;}.cls-32{fill:#0b4177;}.cls-33{fill:#21c7ed;}.cls-34{fill:#f4a484;}.cls-35{fill:#26d1ff;}.cls-36{fill:#0a468f;}.cls-37{fill:#ffb18e;}.cls-38{fill:#ffbca1;}.cls-39{fill:#264e81;}.cls-40{fill:#22273f;}.cls-41{fill:#f4a07f;}.cls-42{fill:#2d3353;}.cls-43{fill:#34517d;}.cls-44{fill:#f25555;}.cls-45{fill:#ff6160;}.cls-46{fill:#e55353;}.cls-47{stroke:#b23b3b;}.cls-48{fill:#ce4949;}.cls-49{fill:#ed8772;}.cls-50{fill:#ffcf61;}.cls-51{fill:#293357;}.cls-52{fill:#e01e1e;}.cls-53{fill:#af1e1e;}.cls-54{fill:#ffe2ae;}.cls-55{fill:#f59179;}.cls-56{fill:#26344f;}.cls-57{fill:#ffffea;}.cls-58{fill:#ffd278;}</style><linearGradient id="linear-gradient" x1="342.17" y1="428.08" x2="342.17" y2="-26.41" gradientTransform="matrix(1, 0, 0, -1, 0, 428.08)" gradientUnits="userSpaceOnUse"><stop offset="0" stop-color="#ff91e7"/><stop offset="1" stop-color="#2ed3ff"/></linearGradient></defs><g id="Layer_2" data-name="Layer 2"><g id="Layer_1-2" data-name="Layer 1"><ellipse class="cls-1" cx="342.17" cy="227.24" rx="227.95" ry="227.24"/><path class="cls-2" d="M93.54,95.7s-58,27.1,6.81,81.67c0,0,27.4-.25,2.47-49.18C99,120.63,91.53,110.72,93.54,95.7Z"/><path class="cls-3" d="M100.35,177.37s-2.21-16.92-11.21-31.45-8.78-31.3,4.4-50.22"/><path class="cls-3" d="M112,168.9s-4-7.18-16.38-9.48"/><path class="cls-3" d="M88.69,166.53s.13-9,5.59-10.54"/><path class="cls-3" d="M87.41,142.88s15.82-5.76,24,6.3"/><path class="cls-3" d="M78.52,154.17s-.89-13.51,7.18-15"/><path class="cls-3" d="M83.07,128.19s13.43-9.21,19.75,0"/><path class="cls-3" d="M69.72,131.24s6-7.59,13.22-7"/><path class="cls-3" d="M85.14,111.94s5.51-4.53,10.48,1.82"/><path class="cls-3" d="M73.23,114.85s7.32-8.51,13.14-6.22"/><path class="cls-4" d="M63.31,133c-7.19-2.62-13.7-7-17.13-13.53-3.22,2.87-5.26,6.76-7,10.63a103.87,103.87,0,0,0-4.89,12.66c1.46,1.78,2.71,3.23,3.13,3.74,4.2,5.14,10.94,12.8,17,15.84-3.62.44-6.59-2.51-9.87-4.06a31.31,31.31,0,0,0-7.44-2c-1.92-.37-3.82-.81-5.71-1.29a64.06,64.06,0,0,0-.65,14.21,55.31,55.31,0,0,0,14.8,3.64c2.42.25,5.69.09,7.54,1.51-2.57,3.55-9.45,3.07-13.43,2.93L31.84,177a46.66,46.66,0,0,0,3.57,10.22c.49,1,1,2,1.62,2.93a94.13,94.13,0,0,0,10.73-1c3.13-.51,11.86-4.08,14.08-2.09a37.79,37.79,0,0,1-4.68,2.71c-1.12.61-2.24,1.21-3.4,1.75-1.82.85-3.72,1.54-5.62,2.23L41.73,196c5.36,5,12.89,7.34,20.31,7.91a53,53,0,0,0,34.68-9.81c5.49-4,7.84-4.68,14.43-6.28,5.68-1.39,11.45-3.63,15.08-8.31a19.66,19.66,0,0,0,3.4-7.24A25.08,25.08,0,0,0,124.25,150a26.82,26.82,0,0,0-3.59-3.4c-6.73,7-17.43,18.41-20.49,19.35,1.62-6.31,5-12.54,8.59-18a65.23,65.23,0,0,0,3.71-6.07,58.52,58.52,0,0,0-14-3.69l-.75-.09q-3.28,10.26-6.59,20.52c-.61,1.89-1.54,7.28-4.9,5.33-1.59-.92-.62-9-.65-10.77-.1-5.43-.2-10.87,0-16.29a118.05,118.05,0,0,1-16-2.1l-1-.23c-1,4-1.82,8.36-2,9.05A76.68,76.68,0,0,1,63.31,133ZM99.7,181.32A11.83,11.83,0,0,1,107,178a35,35,0,0,1,8.17.25,2.47,2.47,0,0,1,1.64.6,1.58,1.58,0,0,1-.57,2.22,4.91,4.91,0,0,1-2.58.52l-1-.48a81.19,81.19,0,0,1-11.91,3,2,2,0,0,1-1.12,0C98.51,183.71,98.94,182.14,99.7,181.32ZM53.86,147.1a3.85,3.85,0,0,1-1.5,4.06l-1.24-.63a34.26,34.26,0,0,1-9.47-10.77c1.55-1.15,3.76-.3,5.48.6C50.06,141.91,53.23,143.92,53.86,147.1Zm11.21,34.65-1.54.38a45.43,45.43,0,0,1-12.78,1.36c-.65-.69,0-1.81.85-2.34,2.7-1.83,6.32-1.52,9.59-1.14C62.67,180.18,64.36,180.49,65.07,181.75ZM75.49,194.7c7.27-1.71,4.71,2.57-.66,3.87a48.63,48.63,0,0,1-18.81.71Z"/><path class="cls-4" d="M618.66,117.39s52.13,43.73-30.6,82.51c0,0-28.23-7.68,11.64-51.46C605.86,141.68,616.41,133.45,618.66,117.39Z"/><path class="cls-5" d="M588.06,199.9s7.16-16.87,20.65-29.44,18.11-30,10-53.07"/><path class="cls-5" d="M578.45,188s6.23-6.33,19.65-5.35"/><path class="cls-5" d="M603.23,191.86s2.48-9.36-2.73-12.4"/><path class="cls-5" d="M611.38,167.78s-14.68-10.24-26.59,0"/><path class="cls-5" d="M617.31,181.86s4.81-13.71-3.09-17.45"/><path class="cls-5" d="M620.1,153.79s-11.21-13.15-20.4-5.35"/><path class="cls-5" d="M633,160.56s-4-9.47-11.64-10.8"/><path class="cls-5" d="M622.65,136.45s-4.38-6.18-11.34-1"/><path class="cls-5" d="M634.11,142.67s-5.1-10.77-11.78-10"/><path class="cls-2" d="M652.48,169.57c0-.76.62-5.39.93-9.73l-1-.06a124.76,124.76,0,0,1-16.83-2.84c-1.57,5.52-3.45,11-5.33,16.38-.63,1.8-2.29,10.2-4.2,10.64-4,.92-3.18-4.79-3.17-6.88,0-7.56.07-15.11.11-22.67l-.79-.14a62.07,62.07,0,0,0-15.28-.61,64.74,64.74,0,0,0,1.73,7.25c1.77,6.61,3.16,13.94,2.72,20.78-2.77-1.89-9.78-16.66-14.25-25.78a28.39,28.39,0,0,0-4.73,2.32,26.93,26.93,0,0,0-12.72,20.7,20.45,20.45,0,0,0,1,8.33c2.12,5.84,7.18,9.87,12.44,13,6.1,3.65,8.23,5.09,12.44,10.77a54.76,54.76,0,0,0,31.65,20.57c7.65,1.72,16,1.66,23-1.68l-5.68-4.33c-1.68-1.27-3.36-2.55-4.91-4-1-.9-1.92-1.86-2.85-2.81a40.3,40.3,0,0,1-3.81-4.17c2.88-1.32,10.49,5,13.48,6.44a95.36,95.36,0,0,0,10.43,4.38c.9-.79,1.77-1.6,2.59-2.46a49.67,49.67,0,0,0,6.95-9.17l-7.92-2.12c-4-1.09-11.12-2.73-12.54-7.1,2.33-.85,5.56.32,8.08.82a59,59,0,0,0,16.08.91,68.56,68.56,0,0,0,4-14.5c-2.06-.1-4.12-.25-6.17-.47a33.08,33.08,0,0,0-8.13-.28c-3.81.54-7.77,2.58-11.26,1,7.11-1.18,16.41-6.81,22.32-10.68.59-.38,2.32-1.45,4.38-2.79a108.67,108.67,0,0,0-.77-14.24c-.52-4.45-1.3-9-3.59-12.87-5.59,5.51-13.58,7.91-21.66,8.32A83.55,83.55,0,0,1,652.48,169.57ZM606,200.13a2.09,2.09,0,0,1-1.13-.33,85,85,0,0,1-11-6.72l-1.19.16a5,5,0,0,1-2.42-1.32,1.65,1.65,0,0,1,.16-2.4,2.6,2.6,0,0,1,1.85-.1,37.24,37.24,0,0,1,8.29,2.26,12.17,12.17,0,0,1,6.21,5.58C607.27,198.32,607.18,200,606,200.13Zm67.11-27.84c2-.38,4.52-.55,5.7,1.08a37.34,37.34,0,0,1-13.06,7.92l-1.45.25a4,4,0,0,1-.18-4.55C665.79,174,669.64,172.94,673.1,172.29Zm-27.17,35.53c3.42.63,7.15,1.43,9.27,4.11.63.78,1,2.12.08,2.61a47.47,47.47,0,0,1-12.4-5.31l-1.43-.86C642.59,207.33,644.39,207.54,645.93,207.82Zm-1.13,21a51.08,51.08,0,0,1-18.69-6.52c-5-3-6.14-8.07.62-4.1Z"/><path class="cls-6" d="M80,187.22s168-87.75,407.16-52.29S713.36,407.14,575.71,430.7s-201-48.23-290.16-52S145,422.8,77,398.85-56.8,277.48,80,187.22Z"/><path class="cls-7" d="M178.12,172s295.27-45.82,401.46,23.5S623.13,414.2,477,380.83s-172.23-43.89-253-31.47-176.44-7.54-174-40.06S68.35,212.84,178.12,172Z"/><path class="cls-8" d="M305.23,152.37S224,152.37,178.12,172c-12.79,5.48-15.46,37.2,49.4,32.05s73-18.49,97.64-12.22,50.34,28.76,80.47,23.21,38.16-40.44,25.17-44.8S381,155.45,305.23,152.37Z"/><path class="cls-8" d="M259.84,260.55s-60,22.27-82.61,12.89S-44.57,314.75,74.73,341s136.88-4,173.57-4.74S350.24,281.65,259.84,260.55Z"/><path class="cls-9" d="M384.55,157.14s-54.71-49.94,21.08-79.78c0,0,18.14,5,3.57,40.05S386.84,140.84,384.55,157.14Z"/><path class="cls-10" d="M405.63,77.36s-32.69,26.74-22.8,78.09"/><path class="cls-10" d="M413.58,86s-13.4,12.6-20.74,7.11"/><path class="cls-10" d="M385.12,110s24.77,5.52,28.72-6.91"/><path class="cls-10" d="M381,134.29s18.17,4.36,22.74-5.22"/><path class="cls-10" d="M365.8,114.49a25.27,25.27,0,0,0,15.39,15.86"/><path class="cls-10" d="M376.12,95.23s.06,13.23,7.77,17.61"/><path class="cls-10" d="M388.23,85.85s-3,7.62,3,10"/><path class="cls-11" d="M424.41,99.05s-21.56,9.79-36.12,39.71"/><path class="cls-12" d="M423.12,99.7s6.17-11.32,15.76-11.08C438.88,88.62,431.18,100.05,423.12,99.7Z"/><path class="cls-13" d="M415.13,105s7.88-8.61,4.52-18.24C419.65,86.75,413.7,96.11,415.13,105Z"/><path class="cls-12" d="M429,108.1s-8.09-7.18-15.51-1.83C413.51,106.27,422.59,112.11,429,108.1Z"/><path class="cls-12" d="M409.73,94.5s3.38,7.42-3,18C406.7,112.45,401.82,104.54,409.73,94.5Z"/><path class="cls-13" d="M421.3,113.72s-11.38-5.71-17.43,1.73C403.87,115.45,416.19,119.28,421.3,113.72Z"/><path class="cls-13" d="M401.14,103.93s3.65,6.4-1.71,16.82C399.43,120.75,394.66,115.8,401.14,103.93Z"/><path class="cls-12" d="M412.91,120s-11.5-4.15-16.58,4.46A16.5,16.5,0,0,0,412.91,120Z"/><path class="cls-9" d="M626.85,324.43s-50.52-53.91,27.43-77.94c0,0,17.67,6.39.34,40.19S630.45,308.36,626.85,324.43Z"/><path class="cls-10" d="M654.28,246.49s-34.73,24.19-29,76.13"/><path class="cls-10" d="M661.51,255.67s-14.37,11.56-21.25,5.53"/><path class="cls-10" d="M631.21,277.43s24.26,7.37,29.19-4.72"/><path class="cls-10" d="M625.15,301.39s17.77,5.72,23.09-3.49"/><path class="cls-10" d="M611.58,280.5a25.15,25.15,0,0,0,14.08,17"/><path class="cls-10" d="M623.42,262.08s-1,13.19,6.33,18.14"/><path class="cls-10" d="M636.25,253.64s-3.59,7.38,2.18,10.23"/><path class="cls-11" d="M667.79,288.39s-22.28,8.14-39.2,36.88"/><path class="cls-12" d="M666.46,289s7-10.82,16.59-9.86C683.05,279.09,674.46,289.91,666.46,289Z"/><path class="cls-13" d="M658.06,293.62s8.55-8,6-17.84C664,275.78,657.35,284.66,658.06,293.62Z"/><path class="cls-12" d="M671.66,297.77s-7.49-7.77-15.32-3C656.34,294.77,664.93,301.29,671.66,297.77Z"/><path class="cls-12" d="M653.52,282.75s2.77,7.66-4.47,17.68C649.05,300.43,644.83,292.17,653.52,282.75Z"/><path class="cls-13" d="M663.51,302.79s-10.88-6.55-17.51.41C646,303.2,658,308,663.51,302.79Z"/><path class="cls-13" d="M644.19,291.51s3.13,6.65-3,16.64C641.15,308.15,636.79,302.86,644.19,291.51Z"/><path class="cls-12" d="M654.65,308.44s-11.14-5-16.89,3.19A16.54,16.54,0,0,0,654.65,308.44Z"/><path class="cls-14" d="M352.18,193.51s67.85,12.78,79.7,1.65c8.13-7.64,3.87-32.07.4-46.63a14.55,14.55,0,0,0-14.68-11c-20.62.58-62.2,2.55-71.5,8.84C333.6,154.84,343.39,192,352.18,193.51Z"/><path class="cls-15" d="M431.88,195.16c3.91-3.68,4.95-11.25,4.6-19.74-19.82-7.14-61.38.92-74.92,4-16.54,3.74-9.38,14.11-9.38,14.11S420,206.29,431.88,195.16Z"/><path class="cls-16" d="M389.83,174.39s-7.38-17.93-4.65-35.22,35.38-11.56,39.83-7.94,11.68,16.89,11.47,44.19C436.48,175.42,422.17,168.16,389.83,174.39Z"/><path class="cls-17" d="M342.19,151.24s.75,32.64,8.6,35.82,54.46,2.05,54.46,2.05"/><path class="cls-18" d="M408.25,172.71s-6.4,20.42-.52,27,21.54,4.34,26.38-3.43,2.37-20.85,2.37-20.85S428.74,169,408.25,172.71Z"/><path class="cls-17" d="M406.91,198.57a109.27,109.27,0,0,1,1.6-17,8,8,0,0,1,7.2-6.34,37.12,37.12,0,0,1,12.22,1.32"/><path class="cls-19" d="M427.83,196.43a2.88,2.88,0,1,0-3-2.88A2.93,2.93,0,0,0,427.83,196.43Z"/><path class="cls-18" d="M337.88,178.34s6.43,3,7.29,2.22l-.53,3.72S338.74,184.94,337.88,178.34Z"/><path class="cls-18" d="M338.35,169a7.43,7.43,0,0,1,2.62-7.52s1.22,2.71.31,4A43.86,43.86,0,0,1,338.35,169Z"/><path class="cls-17" d="M406.82,129.8l3.12,25.72"/><path class="cls-17" d="M385.85,136.64s.25,12.57,2.56,21.85a12.59,12.59,0,0,0,11.29,9.41c5.18.41,13.06.29,24.15-1.69"/><path class="cls-14" d="M338.21,165.23s-6.91,12.25.31,16.43c5,2.9-.22-5.88.87-9.78A7.71,7.71,0,0,0,338.21,165.23Z"/><path class="cls-19" d="M369.46,163.13l-1.34-10.23a2.7,2.7,0,0,0-3-2.28l-6.44.8a2.65,2.65,0,0,0-2.35,2.93l1.34,10.23a2.7,2.7,0,0,0,3,2.28l6.44-.79A2.66,2.66,0,0,0,369.46,163.13Z"/><path class="cls-20" d="M617.77,60.47l-3.55-1.69-.92,1.81,3.55,1.69Z"/><path class="cls-20" d="M618.26,61.35l-5-2.4,0-.09A2.85,2.85,0,0,1,617,57.62a2.68,2.68,0,0,1,1.28,3.64Z"/><path class="cls-20" d="M578.54,161.1l-22.93-10.95-1.84,3.61,22.94,11Z"/><path class="cls-21" d="M575.82,156.43l-14.73-7-1.38,2.71,14.73,7Z"/><path class="cls-22" d="M575.54,153.36l-11.75-5.61-2.68,1.64,14.73,7Z"/><path class="cls-20" d="M577.39,139.73l-3.17-1.51L571,144.65l3.17,1.51Z"/><path class="cls-21" d="M572.82,144.87a3.7,3.7,0,0,0-4.88,1.61l-1.33,2.62,6.53,3.11,1.33-2.62A3.48,3.48,0,0,0,572.82,144.87Z"/><path class="cls-20" d="M598.9,95.88l-2.14-1-20.07,39.49,2.13,1Z"/><path class="cls-22" d="M575.41,143.87l-3.17-1.52a1.09,1.09,0,0,1-.52-1.48,1.16,1.16,0,0,1,1.53-.51l3.17,1.52a1.08,1.08,0,0,1,.52,1.48A1.16,1.16,0,0,1,575.41,143.87Z"/><path class="cls-22" d="M576.52,140.13l-2.19-1a1.65,1.65,0,0,1-.61-2.54l3-3.71,3.4,1.63L579,139.05A1.74,1.74,0,0,1,576.52,140.13Z"/><path class="cls-22" d="M597.28,96.47a1.87,1.87,0,0,1-.9-2.56l1.14-2.26,3.55,1.69-1.15,2.26A2,2,0,0,1,597.28,96.47Z"/><path class="cls-20" d="M602,92.89l-4.66-2.22-.37.72,4.66,2.22Z"/><path class="cls-20" d="M605,91.61l-8.39-4,.26-3.24,10.63,5.07Z"/><path class="cls-20" d="M601.62,92.71l-3.91-1.87.54-2.44,5,2.41Z"/><path class="cls-23" d="M602.5,68.2c-.28.54-5.67,16.16-5.67,16.16l10.63,5.07,9.95-14.11-7.65-5Z"/><path class="cls-24" d="M609.76,70.32l-8.27,16.26"/><path class="cls-20" d="M617.51,75.59l-15.1-7.21-.12-3.88,18.65,8.91Z"/><path class="cls-22" d="M619.94,70.8l-15.1-7.21-2.55.91,18.65,8.91Z"/><path class="cls-21" d="M616.49,61.18l-1.86-.89a7.37,7.37,0,0,0-9.74,3.21l14.91,7.12A6.94,6.94,0,0,0,616.49,61.18Z"/><path class="cls-22" d="M614.63,60.29l-.19-.09-3.21,6.33,2,1,3.21-6.32Z"/><path class="cls-20" d="M170.63,39.24l-3.8,1,.56,1.94,3.8-1Z"/><path class="cls-20" d="M171.61,39.61l-5.41,1.48,0-.1a2.7,2.7,0,0,1,2-3.35,2.81,2.81,0,0,1,3.46,1.88Z"/><path class="cls-20" d="M210.86,139.51l-24.62,6.71,1.13,3.88L212,143.38Z"/><path class="cls-21" d="M205.61,137.8l-15.81,4.31.85,2.91,15.8-4.31Z"/><path class="cls-22" d="M203.28,135.73l-12.6,3.43-.87,3,15.81-4.31Z"/><path class="cls-20" d="M195.27,124.41l-3.4.92,2,6.91,3.41-.93Z"/><path class="cls-21" d="M195.4,131.18a3.52,3.52,0,0,0-2.52,4.35l.82,2.81,7-1.91-.81-2.81A3.66,3.66,0,0,0,195.4,131.18Z"/><path class="cls-20" d="M181,77.85l-2.3.63L191,120.85l2.29-.62Z"/><path class="cls-22" d="M196.64,128.75l-3.4.93a1.15,1.15,0,0,1-1.41-.77,1.11,1.11,0,0,1,.79-1.37l3.4-.93a1.15,1.15,0,0,1,1.41.77A1.11,1.11,0,0,1,196.64,128.75Z"/><path class="cls-22" d="M194.89,125.25l-2.35.64a1.73,1.73,0,0,1-2.21-1.49l-.31-4.73,3.66-1,2.29,4.19A1.66,1.66,0,0,1,194.89,125.25Z"/><path class="cls-22" d="M180.22,79.33A2,2,0,0,1,177.78,78l-.7-2.43,3.8-1,.7,2.42A1.9,1.9,0,0,1,180.22,79.33Z"/><path class="cls-20" d="M181.25,73.6l-5,1.36.22.78,5-1.36Z"/><path class="cls-20" d="M182.58,70.74l-9,2.45-2.05-2.58,11.41-3.11Z"/><path class="cls-20" d="M180.86,73.72l-4.21,1.14-1.27-2.16,5.4-1.47Z"/><path class="cls-23" d="M164.6,54.92c.17.58,6.93,15.69,6.93,15.69l11.41-3.11-2.33-17-9.14,1.24Z"/><path class="cls-24" d="M171.47,51.79l5.06,17.46"/><path class="cls-20" d="M180.87,50.69l-16.21,4.42-2.76-2.8,20-5.46Z"/><path class="cls-22" d="M179.38,45.55,163.17,50l-1.27,2.34,20-5.46Z"/><path class="cls-21" d="M170.17,40.63l-2,.55a7,7,0,0,0-5,8.69l16-4.36A7.32,7.32,0,0,0,170.17,40.63Z"/><path class="cls-22" d="M168.17,41.18l-.2.06,2,6.78,2.2-.6-2-6.79Z"/><path class="cls-25" d="M311.27,234.74,272,212.68l2.42.39,39.27,22.06Z"/><path class="cls-26" d="M311.27,234.74l2.42.38-14.21,42.77-.1.3-.11.33a1.81,1.81,0,0,1-1.18,1.2,1.07,1.07,0,0,1-.5,0,.88.88,0,0,1-.45-.2,1.29,1.29,0,0,1-.28-1.42l.47-1.43Z"/><path class="cls-27" d="M297.33,276.7l-39.27-22.06,13.94-42,39.27,22.06Z"/><path class="cls-28" d="M296.39,274.31,260.05,253.9l12.89-38.83,36.35,20.41Z"/><path class="cls-26" d="M297.33,276.7l-.47,1.44a1.28,1.28,0,0,0,.28,1.41l-38.39,10.71-.05-2.78Z"/><path class="cls-27" d="M258.75,290.26,219.47,268.2l0-2.78,39.27,22.05Z"/><path class="cls-25" d="M258.7,287.47l-39.27-22.05,38.63-10.78,39.27,22.06Z"/><path class="cls-29" d="M260.11,284.24l-33.28-18.69,32.73-9.13,33.28,18.7Z"/><path class="cls-30" d="M93.79,318.09s-6.36-4.75-14.05-16.83C73,290.58,44,278,14.53,279.9c0,0,1.79,46.22,60.25,39.43C79.51,318.78,87.68,315.59,93.79,318.09Z"/><path class="cls-31" d="M16.23,280.91S53,305.51,91.05,317.07"/><path class="cls-31" d="M18.12,290.3s8.11,1.2,13.88.23"/><path class="cls-31" d="M21,297.2s15.35,1,21.86-.47"/><path class="cls-31" d="M27.62,306.39s17,1.5,25.47-4.64"/><path class="cls-31" d="M38.79,314.35S58,312.9,61.22,305.6"/><path class="cls-31" d="M52.44,318.44s11.77,1.37,18.94-8.43"/><path class="cls-31" d="M70.74,318.88a12.06,12.06,0,0,0,8-6"/><path class="cls-31" d="M27.17,280.87s4.2,5.37,4,9.18"/><path class="cls-31" d="M42,282.83s3,8.25.18,13.36"/><path class="cls-31" d="M51,285.11s4.09,9.71,1.27,16.22"/><path class="cls-31" d="M63.8,290.11s.56,10.6-3.26,15.18"/><path class="cls-31" d="M69.77,293.42s3.67,9.78.75,16.23"/><path class="cls-31" d="M78.51,301.31s2,4.78-.55,11.29"/><path class="cls-11" d="M45.33,248.16s4.3,37.53,44.48,75.18"/><path class="cls-12" d="M45.7,250.43s-14.86-15.23-9.43-29.5C36.27,220.93,50.5,238.5,45.7,250.43Z"/><path class="cls-13" d="M49.94,265.23s-9.61-16.38-26.78-16.41C23.16,248.82,35,262.7,49.94,265.23Z"/><path class="cls-12" d="M62.24,246s-15.74,8.36-11.11,22.33C51.13,268.33,65.27,257.76,62.24,246Z"/><path class="cls-12" d="M30.31,267.81s13.67-1.17,27.13,14C57.44,281.82,42.21,285,30.31,267.81Z"/><path class="cls-13" d="M67.16,260.55S52,274.63,60.73,287.64C60.73,287.64,73.36,271.16,67.16,260.55Z"/><path class="cls-13" d="M40.88,285.69s12.15-2.12,26,11.41C66.88,297.1,56.45,301.66,40.88,285.69Z"/><path class="cls-12" d="M72.81,276.47s-12.7,15.09-1.6,27.25C71.21,303.72,81.22,291.34,72.81,276.47Z"/><path class="cls-32" d="M133.86,265.08l40.67-11.81,30.23-8.78a9.6,9.6,0,0,1,1.06-.25,10.16,10.16,0,0,1,11.43,6.46,9.72,9.72,0,0,1-5.36,12.12l-.95.42-50,30.1a29.75,29.75,0,0,1-20.84,3.71l-6.2-1.18Z"/><path class="cls-32" d="M215,243a9.86,9.86,0,0,1,7.33,6.11L248,316.3l4,10.64-6.33,2.44-6.48-11.31-32.86-57.36-2.06-3.58a9.74,9.74,0,0,1-1.15-3.25,9.6,9.6,0,0,1,4.88-9.82A10.15,10.15,0,0,1,215,243Z"/><path class="cls-32" d="M252,326.94l8.85,3.7-15.3,2v-3.27Z"/><path class="cls-33" d="M187.14,251.13,152.39,211a12.07,12.07,0,0,1,2.79-18.22,12.91,12.91,0,0,1,18.12,4.49l25.54,46.17a6.76,6.76,0,0,1-2.42,9.05A7.26,7.26,0,0,1,187.14,251.13Z"/><path class="cls-33" d="M243.89,243.3l-50,10.24a7,7,0,0,1-8.36-5.47,6.84,6.84,0,0,1,6.4-8L243,236.54Z"/><path class="cls-34" d="M242.4,237.33s3.11-3.86,5.46-4,.09,3.1.09,3.1,9-2.21,9.12,1.8-8,6.37-13.72,4.81Z"/><path class="cls-35" d="M101.82,187.68l57.71,2.72a10.39,10.39,0,0,1,10.06,11.14c-1.44,16.36-5,48.47-12.49,73.85,0,0-15.53,4.09-27.1,3.55-9.91-.47-23.33-9.42-23.33-9.42C99,224.21,101.82,187.68,101.82,187.68Z"/><path class="cls-36" d="M190.19,255.83a9.73,9.73,0,0,1-5.47,12.07l-1,.43-23.36,10.15-25,16.54c-9.53,6.29-22.6,1.27-25.08-9.65l-3.61-15.85,14.21-4,56.88-16a10.24,10.24,0,0,1,12.43,6.32Z"/><path class="cls-36" d="M230.19,328.36l-6.08,3-6.73-9.52L176,263.14a8.78,8.78,0,0,1-.48-.76,9.36,9.36,0,0,1-1.22-3.81,9.56,9.56,0,0,1,4.17-8.77,10.17,10.17,0,0,1,14,2.4,9.49,9.49,0,0,1,.79,1.31l32.25,65.27Z"/><path class="cls-32" d="M230.18,328.36l9.18,2.89-15.05,3.36-.32-3.26Z"/><path class="cls-37" d="M111.16,245.79s3.82-3.2,6.15-2.88-.53,3.07-.53,3.07,9.23-.5,8.59,3.46-9.16,4.75-14.42,2.16Z"/><path class="cls-37" d="M139.58,201.54l-10.68-12.3,3.31-10.78,12.51,3.61Z"/><path class="cls-38" d="M152.35,173c-.31,6.41-2.93,15.87-8.18,14.36s-15.17-9.93-13.24-16.2,7.73-10.11,13-8.6S152.67,166.43,152.35,173Z"/><path class="cls-39" d="M141.62,171.68s15.5.47,14.13-6-11.39-10.59-20.24-5.95c0,0-16.1,5.08-4.37,22.15A11,11,0,0,0,141.62,171.68Z"/><path class="cls-38" d="M139.38,174.71s-1.62-4.83-3.92-2.74.2,7.75,2.12,8.07Z"/><path class="cls-19" d="M144,179.82l5.43,2s-1.58,1.71-2.55,1.38S143.77,180.9,144,179.82Z"/><path class="cls-19" d="M139.58,201.54l-13.65-12.73,3.26-1Z"/><path class="cls-19" d="M139.58,201.54l3.4-12.86-.38,10Z"/><path class="cls-19" d="M129,200.79l4.2-5.17-7.3-6.8Z"/><path class="cls-19" d="M142.6,198.71l1.77,3.13s1.08-9.24-1.41-12.75Z"/><path class="cls-33" d="M66.81,241.89l42.74-32.08a12.06,12.06,0,0,0,1.24-18.39,13,13,0,0,0-18.68.68L57.05,232a6.74,6.74,0,0,0,.39,9.34A7.27,7.27,0,0,0,66.81,241.89Z"/><path class="cls-33" d="M113,245.43,64.37,230.2a7.05,7.05,0,0,0-8.9,4.6A6.8,6.8,0,0,0,61,243.36l50.41,8.7Z"/><path class="cls-38" d="M150,174s4,3.16,3.5,7.66c0,0-3.37-.1-3.76-1.49S150,174,150,174Z"/><path class="cls-40" d="M243,183l-.15-6,17.67-2.66,58.3-8.78a9.18,9.18,0,0,1,4.79.55,8.68,8.68,0,0,1-3.41,16.78l-59,.05Z"/><path class="cls-40" d="M329,175.58A8.85,8.85,0,0,0,322.52,165l-73.47-20.29-10.12,25.52,80,12.09A9.11,9.11,0,0,0,329,175.58Z"/><path class="cls-41" d="M238.05,180.75l-8.66-.75,12.53-5.89,1,2.8Z"/><path class="cls-42" d="M283.74,185.22a8.56,8.56,0,0,1,.35,2.38,8.92,8.92,0,0,1-10.5,8.61l-50.7-8.33-25.42-4.17.88-5.9,24.74.35,52.14.74A9,9,0,0,1,283.74,185.22Z"/><path class="cls-42" d="M283.07,191.88A8.7,8.7,0,0,0,280,180l-31.7-28.82-24.83-5.55-.67,1.08c-7.29,11.76-2.3,27.05,10.65,32.6l38,16.27A9.28,9.28,0,0,0,283.07,191.88Z"/><path class="cls-37" d="M197.48,183.71l-7,5,5.27-12.49,2.64,1.46Z"/><path class="cls-43" d="M265.22,63s-.24,11.44.93,15.17c0,0-6.34-.28-7.09-1S260.06,64.76,265.22,63Z"/><path class="cls-34" d="M291.94,136.72,263.6,98.29a10.92,10.92,0,0,1,3.84-16.19,11.62,11.62,0,0,1,16,5.27L303,130.61a6.13,6.13,0,0,1-2.84,8A6.53,6.53,0,0,1,291.94,136.72Z"/><path class="cls-44" d="M283.4,87.38a11.61,11.61,0,0,0-16-5.28,10.91,10.91,0,0,0-3.84,16.19l15.17,20.57c5.51-.44,12.81-5,14.91-8.83Z"/><path class="cls-34" d="M340.6,116.26l-39.89,22.41a6.44,6.44,0,0,1-8.74-2.41,6.06,6.06,0,0,1,3.17-8.57l42.72-17Z"/><path class="cls-34" d="M337.44,110.68s3.91-2.25,5.93-1.6-1,2.64-1,2.64,8.28,1,7.05,4.4-8.91,2.79-13.15-.32Z"/><path class="cls-45" d="M230.19,123.48,224.62,89.9c-1.23-7.44,5.2-14,12.93-13.12l36.37,4a9.34,9.34,0,0,1,8.39,10.6,40.32,40.32,0,0,1-2.42,7.55A43.51,43.51,0,0,0,281,106.3c1.4,6.61-1.41,8.92-7.4,10.06a10.28,10.28,0,0,1-1.65.18c-4.57,9.47-8.91,17.76-8.91,17.76l4.56,15.58s-5.1,12.45-25.57,8.9c-8.81-1.53-22.62-6.45-22.62-6.45Z"/><path class="cls-38" d="M205.22,126.35l20-43.09c2.81-6.08,8.31-4.78,14.19-1.34l.71-1.18c5.74,3.36,6.46,7.5,4.8,13.58l-28.63,38.22a6.54,6.54,0,0,1-8.54,1.64A6.1,6.1,0,0,1,205.22,126.35Z"/><path class="cls-38" d="M257.1,135.24l-46.11.15a6.14,6.14,0,1,1,.82-12.2l45.76,5.93Z"/><path class="cls-38" d="M256.86,129.58s3.92-2.23,5.94-1.56-1,2.63-1,2.63,8.27,1,7,4.45-8.93,2.73-13.15-.41Z"/><path class="cls-37" d="M261.45,91,249.69,78.44V68.29h11.77Z"/><path class="cls-38" d="M265.65,58.54c1.43,5.61-.33,14.83-3.27,14.43-2.56-.34-14.08-3.55-14.08-9.44s2.36-11.93,7.3-11.92S264.2,52.81,265.65,58.54Z"/><path class="cls-19" d="M260.5,67.49l3.7.28s-.65,1.33-1.3,1.29S260.58,68.19,260.5,67.49Z"/><path class="cls-43" d="M257,60.53s4.78,0,9.47.43c2.22.22,2.5-14-11.87-11.94,0,0-23.09-.21-4.93,28.16C249.69,77.18,258.83,72.51,257,60.53Z"/><path class="cls-43" d="M245.35,52.46a20.46,20.46,0,0,0-1.93,23l6.27,1.68Z"/><path class="cls-45" d="M241.54,78.31a11.6,11.6,0,0,0-16.36,5L215.11,105s1.35,8.9,14.08,10.28l15.69-20.94A10.89,10.89,0,0,0,241.54,78.31Z"/><path class="cls-38" d="M265.11,62l2.51,4.44-2.85.46Z"/><path class="cls-45" d="M144.57,346.57s-65.81-5.65-73.66-18.9c-5.39-9.1,5.19-30.44,12.35-42.93a14.17,14.17,0,0,1,16.48-6.34c18.77,5.82,56.43,18.27,63.26,26.44C172.17,315.8,153.05,347.43,144.57,346.57Z"/><path class="cls-46" d="M70.91,327.67c-2.59-4.38-1.48-11.6,1.16-19.31,20.14-1.48,56.12,16.56,67.73,22.84,14.17,7.67,4.77,15.37,4.77,15.37S78.76,340.92,70.91,327.67Z"/><path class="cls-47" d="M132.32,325.25s-23.69-11.23-15.67-26,27.64-5.13,27.64-5.13"/><path class="cls-19" d="M124.91,307.38a4.18,4.18,0,1,0-4.31-4.18A4.24,4.24,0,0,0,124.91,307.38Z"/><path class="cls-17" d="M165.27,310.3s-9.59,29.78-17.66,30.69S97,328.94,97,328.94"/><path class="cls-48" d="M98.73,313.1s.32,20.4-6.88,24.93-21-1.54-23.29-9.91,3.51-19.76,3.51-19.76S80.92,304.45,98.73,313.1Z"/><path class="cls-17" d="M92.91,337.2a104.86,104.86,0,0,0,3.17-16,7.52,7.52,0,0,0-4.89-7.67,35.6,35.6,0,0,0-11.58-1.91"/><path class="cls-19" d="M75.07,330a2.76,2.76,0,1,0-2.84-2.75A2.79,2.79,0,0,0,75.07,330Z"/><path class="cls-48" d="M161.84,336.3s-6.73,1.11-7.3.16L154,340S159.25,342.13,161.84,336.3Z"/><path class="cls-48" d="M164,327.56a7.07,7.07,0,0,0-.36-7.59s-1.86,2.18-1.38,3.64A39.8,39.8,0,0,0,164,327.56Z"/><path class="cls-46" d="M165.11,324.17s3,13-4.76,15c-5.41,1.38,1.8-5.35,1.86-9.2A7.48,7.48,0,0,1,165.11,324.17Z"/><path class="cls-49" d="M407.33,196.15l54.4-30.27a14,14,0,0,0,4.46-20.94,15,15,0,0,0-21.59-2.11l-46.86,40.41a7.82,7.82,0,0,0-1.09,10.8A8.42,8.42,0,0,0,407.33,196.15Z"/><path class="cls-49" d="M344,182.85l57.47,14.3a8.16,8.16,0,0,0,10-5.94,7.93,7.93,0,0,0-7-9.54l-59-6.61Z"/><path class="cls-49" d="M346,176s-3.4-4.61-6.13-4.86-.26,3.6-.26,3.6-10.28-3-10.66,1.63,9,7.78,15.66,6.25Z"/><path class="cls-50" d="M452.8,138.23s-5.78-1.42-29.86,23.28c0,0,2.15,18.34,15.81,23.64,0,0,25-12.54,26.17-24.19S470.67,135.62,452.8,138.23Z"/><path class="cls-51" d="M515.31,296.24a11.48,11.48,0,0,1-10.2-12.31L512.77,201l36.31-.38-20.81,86.89A11.72,11.72,0,0,1,515.31,296.24Z"/><path class="cls-51" d="M612.94,341.37h-13l-89-42.86a11.05,11.05,0,0,1-4.19-16.67,11.82,11.82,0,0,1,16-2.55Z"/><path class="cls-52" d="M604.37,339.72l-9.33,6,17.9-.77-.69-3.74Z"/><path class="cls-51" d="M425.21,251.59a11.22,11.22,0,0,1,4.68-15.13l74.79-40.93,20.93,28.77L440,257A11.93,11.93,0,0,1,425.21,251.59Z"/><path class="cls-51" d="M420,343.68l-7.85-1,10.15-95.8a11.56,11.56,0,0,1,14.62-9.66,11.2,11.2,0,0,1,8.1,13.64Z"/><path class="cls-52" d="M412.13,342.71l-8.85,6.65,17.79-2.05-1-3.68Z"/><path class="cls-50" d="M518.92,125.29a459.46,459.46,0,0,1,30,74.28S525,214,513.51,215.08c-16.88,1.66-32-6.85-32-6.85C482,175.06,462.22,194,446,155.85c-2.66-6.26-1.39-13.36,4.77-16.58l42.2-22A19.18,19.18,0,0,1,518.92,125.29Z"/><path class="cls-53" d="M526.06,190.25l-15.08,9s9.61,59.5,59.2,39.76Z"/><path class="cls-52" d="M526.06,190.25s11.2,44.68,24.31,48.91,34.15-1,31.7-15.88-25.41-44.2-25.41-44.2S536.83,178.67,526.06,190.25Z"/><path class="cls-52" d="M461.76,133.55s22.53,43.9,63,65.06a5.22,5.22,0,0,1,1,8.72l0,0a5.61,5.61,0,0,1-6.4.49c-10.28-6.08-41.44-27-66.54-69.61C452.8,138.23,454.73,133.12,461.76,133.55Z"/><path class="cls-54" d="M483.56,122.17l-7.24,25.37L467,130.8Z"/><path class="cls-55" d="M461,185.48l26.56-55.07a15,15,0,0,1,21.16-6.06,14,14,0,0,1,4,20.67l-37.62,48.64a8.43,8.43,0,0,1-11,2A7.86,7.86,0,0,1,461,185.48Z"/><path class="cls-55" d="M412.42,209.92l51.78-28.09a8.27,8.27,0,0,1,11.21,3.26,7.8,7.8,0,0,1-4.26,11l-55.31,21Z"/><path class="cls-55" d="M414.64,209.92s-5.1-2.8-7.68-1.91,1.33,3.37,1.33,3.37-10.63,1.48-9,5.84,11.54,3.37,16.92-.73Z"/><path class="cls-49" d="M475.64,143.87,482,124.25l-6.39-11.49-13.34,7Z"/><path class="cls-55" d="M451.34,111.11c1.92,7.22,7.19,17.36,12.79,14.44s14.81-14.75,11.1-21.42S464,94.4,458.38,97.32,449.39,103.77,451.34,111.11Z"/><path class="cls-56" d="M463.22,107.2S440.34,115,440.34,95c0-11.7,11.37-.61,26.92-2.67,6.69-.88,19.53,2.09,10.36,24.17C477.62,116.45,467.05,118.39,463.22,107.2Z"/><path class="cls-55" d="M464.92,111.88s.19-5.9,3.44-4.29,2.37,8.7.34,9.66Z"/><path class="cls-57" d="M461.34,116.26l-3.92,5.32s2.66.68,3.38-.24S462.25,117.19,461.34,116.26Z"/><path class="cls-58" d="M477,152.36s11.37,14,23.94,15.85c0,0,26.25-26.31,10.1-42.14C489.48,104.91,477,152.36,477,152.36Z"/><path class="cls-55" d="M452.18,112.76s2.05,7.51,0,8.17c0,0,3.49,1.44,4.58-1.89S452.18,112.76,452.18,112.76Z"/><path class="cls-54" d="M553.42,187.12c-3.68.83-6.32,2.88-5.91,4.59s3.72,2.43,7.39,1.6,6.32-2.88,5.91-4.59S557.09,186.29,553.42,187.12Z"/><path class="cls-19" d="M185.15,153.59s-4.44-6.08-5.67-11.87c0,0,.67,7.08,2,9.21s-5.35-6.15-6.83-7.55c0,0,5.07,6.12,3.64,9.94,0,0-2.92-9.14-6.66-11.31,0,0,2.28,9.37,4.69,12.79a46.48,46.48,0,0,0-6.64-6.38s2.13,5.37,4.59,7.09a20.57,20.57,0,0,1-7.34-8.39s-.62,4.34,1.84,7.23c0,0-3.92-2.36-5.6-11.17,0,0-1.3,5.07,1.68,8.81,0,0-2.24-4.54-5.75-5.66L164,163l11.63-1.28Z"/><path class="cls-19" d="M94,184.84S89.52,178.75,88.3,173c0,0,.66,7.09,2,9.22S85,176,83.49,174.62c0,0,5.07,6.13,3.65,9.95,0,0-2.93-9.15-6.66-11.31,0,0,2.27,9.36,4.69,12.79a47.52,47.52,0,0,0-6.64-6.39s2.13,5.37,4.59,7.09a20.49,20.49,0,0,1-7.34-8.39s-.63,4.34,1.83,7.24c0,0-3.91-2.37-5.6-11.17,0,0-1.3,5.06,1.69,8.8,0,0-2.25-4.54-5.75-5.66l4.89,16.68L84.47,193Z"/><path class="cls-19" d="M578.1,170.75s6-4.67,8.82-9.91c0,0-2.65,6.64-4.56,8.32s6.89-4.49,8.71-5.45c0,0-6.61,4.55-6.32,8.6,0,0,5.4-8,9.6-9.1,0,0-4.84,8.4-8.13,11a47.74,47.74,0,0,1,8.19-4.38s-3.57,4.6-6.42,5.6a21.11,21.11,0,0,0,9.44-6.11s-.63,4.33-3.82,6.46c0,0,4.44-1.23,8.55-9.25,0,0-.18,5.22-4.11,8,0,0,3.44-3.77,7.13-3.91l-9.43,14.73-10.83-4.32Z"/></g></g></svg>