<svg width="161" height="161" viewBox="0 0 161 161" fill="none" xmlns="http://www.w3.org/2000/svg">
<circle cx="80.5" cy="80.5" r="77.5" fill="white"/>
<path d="M88.6011 99.7532H71.9539C60.0331 99.7532 48.6006 104.489 40.1713 112.918C31.742 121.347 28.5646 127.192 28.5646 139.113C28.5646 141.32 37.0197 144.971 38.5807 146.532C40.1417 148.093 69.2924 158.5 71.5 158.5H90C92.2076 158.5 123.664 146.262 125.225 144.701C126.786 143.14 131.111 142.433 131.111 140.226C131.111 128.305 128.813 121.347 120.384 112.918C111.954 104.489 100.522 99.7532 88.6011 99.7532Z" fill="#CAD8DD"/>
<path d="M113.572 53.1411V63.1294C113.573 68.9746 112.035 74.7171 109.112 79.7794C106.19 84.8417 101.987 89.0455 96.9246 91.9681V106.412L80.2774 116.4L63.6302 106.412V91.9681C58.5681 89.0455 54.3646 84.8417 51.4424 79.7794C48.5202 74.7171 46.9822 68.9746 46.983 63.1294V53.1411C46.983 44.3109 50.4908 35.8424 56.7347 29.5985C62.9786 23.3546 71.4472 19.8468 80.2774 19.8468C89.1076 19.8468 97.5761 23.3546 103.82 29.5985C110.064 35.8424 113.572 44.3109 113.572 53.1411Z" fill="#DDE5E8"/>
<g opacity="0.06">
<path d="M80.2774 19.8468C77.4679 19.8578 74.6711 20.2249 71.9539 20.9392C79.0964 22.7802 85.4249 26.9421 89.9448 32.7709C94.4647 38.5998 96.9199 45.7651 96.9246 53.1411V63.1294C96.9195 70.5053 94.4641 77.6705 89.9442 83.4992C85.4244 89.3279 79.0962 93.49 71.9539 95.3313C76.8725 96.6253 82.0229 96.7711 87.0069 95.7574C91.9909 94.7438 96.6752 92.5979 100.698 89.4854C104.72 86.373 107.973 82.3774 110.206 77.8075C112.438 73.2375 113.59 68.2155 113.572 63.1294V53.1411C113.572 44.3109 110.064 35.8424 103.82 29.5985C97.5762 23.3546 89.1077 19.8468 80.2774 19.8468Z" fill="#17292D"/>
</g>
<circle cx="80.5" cy="80.5" r="78" stroke="url(#paint0_linear_287_3)" stroke-width="5"/>
<defs>
<linearGradient id="paint0_linear_287_3" x1="80.5" y1="0" x2="80.5" y2="161" gradientUnits="userSpaceOnUse">
<stop stop-color="#63D2EB"/>
<stop offset="1" stop-color="#EA66E4"/>
</linearGradient>
</defs>
</svg>
