<svg width="217" height="217" viewBox="0 0 217 217" fill="none" xmlns="http://www.w3.org/2000/svg">
<path d="M119.419 134.45H96.9813C80.9141 134.45 65.5051 140.833 54.1439 152.194C42.7827 163.555 38.5 171.433 38.5 187.5C38.5 190.475 49.8961 195.396 52 197.5C54.1039 199.604 86.5246 211.5 89.5 211.5H132C134.975 211.5 166.677 197.135 168.781 195.031C170.885 192.927 176.714 191.975 176.714 189C176.714 172.933 173.617 163.555 162.256 152.194C150.895 140.833 135.486 134.45 119.419 134.45Z" fill="#CAD8DD"/>
<path d="M153.075 71.625V85.0875C153.076 92.9658 151.003 100.706 147.064 107.529C143.126 114.352 137.46 120.018 130.637 123.957V143.425L108.2 156.888L85.7625 143.425V123.957C78.9396 120.018 73.2741 114.352 69.3354 107.529C65.3968 100.706 63.3238 92.9658 63.325 85.0875V71.625C63.325 59.7234 68.0528 48.3093 76.4685 39.8936C84.8842 31.4779 96.2984 26.75 108.2 26.75C120.102 26.75 131.516 31.4779 139.931 39.8936C148.347 48.3093 153.075 59.7234 153.075 71.625Z" fill="#DDE5E8"/>
<g opacity="0.06">
<path d="M108.2 26.75C104.413 26.7648 100.644 27.2596 96.9812 28.2225C106.608 30.7038 115.138 36.3133 121.23 44.1695C127.322 52.0258 130.631 61.6835 130.637 71.625V85.0875C130.631 95.0289 127.321 104.686 121.229 112.542C115.137 120.399 106.608 126.008 96.9812 128.49C103.611 130.234 110.552 130.431 117.27 129.064C123.988 127.698 130.301 124.806 135.723 120.611C141.145 116.416 145.529 111.03 148.538 104.871C151.547 98.7114 153.099 91.9426 153.075 85.0875V71.625C153.075 59.7234 148.347 48.3093 139.931 39.8936C131.516 31.4779 120.102 26.75 108.2 26.75Z" fill="#17292D"/>
</g>
<circle cx="108.5" cy="108.5" r="106" stroke="url(#paint0_linear_275_12)" stroke-width="5"/>
<defs>
<linearGradient id="paint0_linear_275_12" x1="108.5" y1="0" x2="108.5" y2="217" gradientUnits="userSpaceOnUse">
<stop stop-color="#63D2EB"/>
<stop offset="1" stop-color="#EA66E4"/>
</linearGradient>
</defs>
</svg>
